<?xml version="1.0" encoding="UTF-8" standalone="no"?>
<svg
   xmlns:dc="http://purl.org/dc/elements/1.1/"
   xmlns:cc="http://creativecommons.org/ns#"
   xmlns:rdf="http://www.w3.org/1999/02/22-rdf-syntax-ns#"
   xmlns:svg="http://www.w3.org/2000/svg"
   xmlns="http://www.w3.org/2000/svg"
   xmlns:sodipodi="http://sodipodi.sourceforge.net/DTD/sodipodi-0.dtd"
   xmlns:inkscape="http://www.inkscape.org/namespaces/inkscape"
   inkscape:version="1.0 (1.0+r73+1)"
   sodipodi:docname="icon-2.svg"
   id="svg25"
   version="1.1"
   viewBox="0 0 53 53"
   height="53px"
   width="53px">
  <metadata
     id="metadata31">
    <rdf:RDF>
      <cc:Work
         rdf:about="">
        <dc:format>image/svg+xml</dc:format>
        <dc:type
           rdf:resource="http://purl.org/dc/dcmitype/StillImage" />
      </cc:Work>
    </rdf:RDF>
  </metadata>
  <defs
     id="defs29" />
  <sodipodi:namedview
     inkscape:current-layer="svg25"
     inkscape:window-maximized="1"
     inkscape:window-y="27"
     inkscape:window-x="0"
     inkscape:cy="23.659669"
     inkscape:cx="29.905921"
     inkscape:zoom="9.4339623"
     showgrid="false"
     id="namedview27"
     inkscape:window-height="704"
     inkscape:window-width="1366"
     inkscape:pageshadow="2"
     inkscape:pageopacity="0"
     guidetolerance="10"
     gridtolerance="10"
     objecttolerance="10"
     borderopacity="1"
     bordercolor="#666666"
     pagecolor="#ffffff" />
  <!-- Generator: Sketch 58 (84663) - https://sketch.com -->
  <title
     id="title2">Group</title>
  <desc
     id="desc4">Created with Sketch.</desc>
  <g
     stroke-linejoin="round"
     stroke-linecap="round"
     fill-rule="evenodd"
     fill="none"
     stroke-width="1"
     stroke="none"
     id="Page-1">
    <g
       stroke-width="2"
       stroke="#000000"
       transform="translate(1.000000, 1.000000)"
       id="Group">
      <g
         id="target-path">
        <path
           id="Shape"
           d="M43.7156863,25.9673725 C45.2712084,25.2276566 46.643562,24.1525582 47.7341307,22.8193333" />
        <path
           id="path7"
           d="M50.2834902,16.5586013 C50.4374782,14.8433368 50.2111863,13.1152215 49.6207451,11.4974379" />
        <path
           id="path9"
           d="M45.5271895,6.11152941 C44.1377593,5.09313075 42.5332996,4.40690868 40.8371634,4.10562092" />
        <path
           id="path11"
           d="M7.02611765,28.3444183 C5.40753853,29.1501991 4.00426535,30.3300694 2.93256209,31.7862745" />
        <path
           id="path13"
           d="M0.641673203,38.4866275 C0.601162739,40.2932965 0.991938283,42.0835937 1.78159477,43.7090588" />
        <path
           id="path15"
           d="M6.64172549,48.8607974 C8.22825851,49.7251625 9.99445882,50.2077474 11.8000915,50.2702353" />
        <path
           id="path17"
           d="M23.8267059,17.1594902 L23.8267059,50.2967451" />
        <polyline
           points="17.5019085 23.4864967 23.8267059 17.1594902 30.1537124 23.4864967"
           id="polyline19" />
        <circle
           r="4.97058824"
           cy="5.56145098"
           cx="23.8267059"
           id="Oval" />
      </g>
    </g>
  </g>
  <path
     id="path856"
     d="M 24.366069,52.10224 C 24.212657,52.01653 24.045707,51.861485 23.995069,51.7577 23.944431,51.653916 23.87915,44.597505 23.85,36.076789 l -0.053,-15.49221 -2.277747,2.24221 c -1.25276,1.233216 -2.39756,2.325372 -2.544,2.427013 -0.3707,0.257295 -0.672544,0.232009 -1.05312,-0.08823 C 17.668371,24.952051 17.596,24.805863 17.596,24.506794 c 0,-0.362322 0.189942,-0.575989 3.3125,-3.72625 1.821875,-1.838039 3.422873,-3.405007 3.557774,-3.482151 0.139028,-0.07951 0.37128,-0.112586 0.536167,-0.07637 0.386802,0.08496 6.966199,6.667019 7.064198,7.067061 0.138706,0.566208 -0.388115,1.150917 -1.036973,1.150917 -0.154119,0 -1.032898,-0.803809 -2.749099,-2.51457 L 25.758,20.41086 v 15.599659 15.599659 l -0.2385,0.271025 c -0.294905,0.335121 -0.782123,0.428489 -1.153431,0.221037 z"
     style="fill:#003459;fill-opacity:1;stroke:#003459;stroke-width:0.372185;stroke-miterlimit:0;stroke-opacity:1" />
  <path
     id="path858"
     d="M 23.638,12.349228 C 21.485958,11.864754 19.737395,10.222586 19.128728,8.1143351 18.873766,7.2312162 18.894904,5.7672938 19.175487,4.876 19.997171,2.2658581 22.552796,0.47475236 25.175,0.67125037 c 2.421218,0.1814369 4.411371,1.71270473 5.267513,4.05294123 0.338586,0.9255152 0.338113,2.6868495 -9.54e-4,3.6699954 -0.9753,2.827567 -4.000363,4.586103 -6.803559,3.955041 z M 25.673283,10.48094 C 27.914123,10.005978 29.309707,7.6706207 28.679366,5.4505853 27.824418,2.4394875 23.974509,1.5493107 21.851784,3.8719101 21.138956,4.6518574 20.847546,5.4145748 20.840416,6.519 c -0.0093,1.4355446 0.577437,2.5687345 1.741406,3.3634328 0.92998,0.6349422 1.969798,0.8362512 3.091461,0.5985072 z"
     style="fill:#003459;fill-opacity:1;stroke:#003459;stroke-width:0.372185;stroke-miterlimit:0;stroke-opacity:1" />
  <path
     id="path860"
     d="M 3.3614336,33.494708 C 3.0071544,33.216032 2.9080003,32.753499 3.1162214,32.350844 3.3475891,31.903428 4.8012254,30.385929 5.55139,29.80869 6.3997664,29.155879 7.7252698,28.408 8.0339018,28.408 c 0.3628136,0 0.6343624,0.176628 0.8182501,0.532228 C 9.1706602,29.556155 8.9515654,29.856351 7.579,30.684655 6.9857275,31.042678 6.3583181,31.573624 5.4903242,32.452199 4.1402223,33.81876 3.9141435,33.92947 3.3614336,33.494708 Z"
     style="fill:#003459;fill-opacity:1;stroke:#003459;stroke-width:0.372185;stroke-miterlimit:0;stroke-opacity:1" />
  <path
     id="path862"
     d="M 2.4482183,45.551937 C 2.0544529,45.349574 1.8326615,44.979232 1.4301652,43.852021 0.973941,42.574342 0.742,41.292662 0.742,40.049297 c 0,-0.861929 0.0228547,-0.967788 0.2601818,-1.205115 0.3474265,-0.347427 0.9277921,-0.353844 1.2676188,-0.01402 0.2108162,0.210816 0.2571519,0.397275 0.3226832,1.2985 0.094588,1.300836 0.2805043,2.220985 0.642078,3.177817 0.4650478,1.230657 0.5067467,1.392346 0.433916,1.682526 C 3.603975,45.246007 3.058902,45.686791 2.809,45.684041 2.7507,45.683395 2.5883482,45.623953 2.4482183,45.551937 Z"
     style="fill:#003459;fill-opacity:1;stroke:#003459;stroke-width:0.372185;stroke-miterlimit:0;stroke-opacity:1" />
  <path
     id="path864"
     d="M 11.842553,52.144578 C 10.649601,52.015696 9.1131232,51.578337 7.9986662,51.050414 6.6904595,50.43071 6.4037593,49.985231 6.9039203,49.349379 c 0.4151611,-0.527792 0.6405435,-0.534108 1.7185161,-0.04816 1.1311529,0.509924 2.5365536,0.886453 3.7052296,0.992688 0.636562,0.05786 0.891294,0.130736 1.1077,0.31688 0.550303,0.473351 0.240612,1.442682 -0.503366,1.575535 -0.14575,0.02603 -0.636001,0.0072 -1.089447,-0.04175 z"
     style="fill:#003459;fill-opacity:1;stroke:#003459;stroke-width:0.372185;stroke-miterlimit:0;stroke-opacity:1" />
  <path
     id="path866"
     d="M 46.116395,7.8997681 C 45.925848,7.7972207 45.390897,7.4926608 44.927614,7.2229686 44.082374,6.7309265 42.954399,6.3029324 41.940252,6.0894567 41.301897,5.9550843 40.937419,5.6207038 40.924245,5.1573478 40.912384,4.7401954 41.193371,4.313088 41.536292,4.2270203 c 1.151196,-0.2889319 5.429007,1.5941901 5.836402,2.5692251 0.332063,0.7947383 -0.489361,1.51627 -1.256299,1.1035227 z"
     style="fill:#003459;fill-opacity:1;stroke:#003459;stroke-width:0.372185;stroke-miterlimit:0;stroke-opacity:1" />
  <path
     id="path868"
     d="m 50.857946,18.367056 c -0.398294,-0.228422 -0.448945,-0.427197 -0.505758,-1.984809 -0.04497,-1.232884 -0.115021,-1.757841 -0.34751,-2.604162 -0.359771,-1.309663 -0.363662,-1.587252 -0.02697,-1.923943 0.312178,-0.312178 0.806957,-0.356183 1.189149,-0.105761 0.763305,0.500137 1.467197,5.391244 0.905342,6.290916 -0.257655,0.412572 -0.80755,0.561003 -1.214253,0.327759 z"
     style="fill:#003459;fill-opacity:1;stroke:#003459;stroke-width:0.372185;stroke-miterlimit:0;stroke-opacity:1" />
  <path
     id="path870"
     d="m 44.135079,27.654662 c -0.257034,-0.21628 -0.326133,-0.358345 -0.326133,-0.670523 0,-0.479829 0.146143,-0.622568 1.372103,-1.340139 0.5927,-0.346915 1.284632,-0.898142 2.048101,-1.631615 1.022848,-0.982662 1.195571,-1.1077 1.530135,-1.1077 0.488425,0 0.879661,0.423319 0.879661,0.951797 0,0.315806 -0.121864,0.494513 -0.86526,1.268851 -0.475893,0.495701 -1.179468,1.133916 -1.5635,1.418256 -0.870132,0.644249 -2.212733,1.382025 -2.518607,1.384005 -0.126702,8.16e-4 -0.377127,-0.121999 -0.5565,-0.272932 z"
     style="fill:#003459;fill-opacity:1;stroke:#003459;stroke-width:0.372185;stroke-miterlimit:0;stroke-opacity:1" />
</svg>
