<?xml version="1.0" encoding="UTF-8" standalone="no"?>
<svg
   xmlns:dc="http://purl.org/dc/elements/1.1/"
   xmlns:cc="http://creativecommons.org/ns#"
   xmlns:rdf="http://www.w3.org/1999/02/22-rdf-syntax-ns#"
   xmlns:svg="http://www.w3.org/2000/svg"
   xmlns="http://www.w3.org/2000/svg"
   xmlns:sodipodi="http://sodipodi.sourceforge.net/DTD/sodipodi-0.dtd"
   xmlns:inkscape="http://www.inkscape.org/namespaces/inkscape"
   width="52px"
   height="54px"
   viewBox="0 0 52 54"
   version="1.1"
   id="svg19"
   sodipodi:docname="icon-1.svg"
   inkscape:version="1.0 (1.0+r73+1)">
  <metadata
     id="metadata25">
    <rdf:RDF>
      <cc:Work
         rdf:about="">
        <dc:format>image/svg+xml</dc:format>
        <dc:type
           rdf:resource="http://purl.org/dc/dcmitype/StillImage" />
      </cc:Work>
    </rdf:RDF>
  </metadata>
  <defs
     id="defs23" />
  <sodipodi:namedview
     inkscape:document-rotation="0"
     pagecolor="#ffffff"
     bordercolor="#666666"
     borderopacity="1"
     objecttolerance="10"
     gridtolerance="10"
     guidetolerance="10"
     inkscape:pageopacity="0"
     inkscape:pageshadow="2"
     inkscape:window-width="1366"
     inkscape:window-height="704"
     id="namedview21"
     showgrid="false"
     inkscape:zoom="9.2592593"
     inkscape:cx="16.371461"
     inkscape:cy="28.787909"
     inkscape:window-x="0"
     inkscape:window-y="27"
     inkscape:window-maximized="1"
     inkscape:current-layer="svg19" />
  <!-- Generator: Sketch 58 (84663) - https://sketch.com -->
  <title
     id="title2">Group</title>
  <desc
     id="desc4">Created with Sketch.</desc>
  <g
     id="Page-1"
     stroke="none"
     stroke-width="1"
     fill="none"
     fill-rule="evenodd"
     stroke-linecap="round"
     stroke-linejoin="round">
    <g
       id="Group"
       transform="translate(1.000000, 1.000000)"
       stroke="#000000"
       stroke-width="2">
      <g
         id="target-center-1">
        <circle
           id="Oval"
           cx="17.1011905"
           cy="32.8095238"
           r="8.51190476" />
        <circle
           id="circle7"
           cx="17.1011905"
           cy="32.8095238"
           r="17.0238095" />
        <path
           d="M17.1011905,32.8095238 L37.5297619,12.3809524"
           id="Shape" />
        <path
           d="M0.0773809524,51.5357143 L5.94492063,45.6681746"
           id="path10" />
        <path
           d="M34.125,51.5357143 L28.2574603,45.6681746"
           id="path12" />
        <path
           d="M42.2237937,17.3178571 C41.4662132,18.076395 40.3956158,18.4338215 39.3342857,18.2825397 L32.5928571,17.320127 L31.6304444,10.5786984 C31.4785775,9.5177373 31.8351442,8.44719647 32.5928571,7.68919048 L39.8154921,0.464285714 L41.8719683,8.03874603 L49.4464286,10.0952222 L42.2237937,17.3178571 Z"
           id="path14" />
      </g>
    </g>
  </g>
  <path
     style="fill:#000080;fill-opacity:0.37254903;stroke:#000000;stroke-width:0.379208;stroke-miterlimit:0;stroke-opacity:0.372549"
     d="M 0.41658147,53.161616 C 0.23967836,52.970733 0.15173835,52.749539 0.15173835,52.49546 c 0,-0.352679 0.1966522,-0.578017 2.69971525,-3.093543 l 2.699715,-2.713155 -0.814992,-0.913689 c -2.14354,-2.403123 -3.5764841,-5.26178 -4.2746294,-8.527687 -0.20455819,-0.956918 -0.2434585,-1.479731 -0.24911069,-3.348 -0.005734,-1.895468 0.0287479,-2.388888 0.23967509,-3.429583 0.7642418,-3.770701 2.5279951,-7.001569 5.2474497,-9.612355 2.4928323,-2.393218 5.4887317,-3.95396 9.0124497,-4.695119 0.991381,-0.208521 1.47287,-0.242001 3.421727,-0.237929 1.932937,0.004 2.435532,0.04067 3.402,0.247974 2.979712,0.639123 5.553468,1.842541 7.797239,3.645773 0.397781,0.319681 0.76311,0.581239 0.811842,0.581239 0.04873,0 0.618471,-0.531516 1.266087,-1.181147 l 1.177484,-1.181147 -0.462786,-3.327853 c -0.547476,-3.936837 -0.546788,-4.445497 0.0074,-5.499359 0.303683,-0.5774629 1.020912,-1.3527521 4.286678,-4.6336875 2.276759,-2.2873351 4.033189,-3.96810512 4.187096,-4.00673347 0.31719,-0.0796095 0.816653,0.10797481 0.974743,0.36608565 0.06261,0.10221262 0.541785,1.76534112 1.064844,3.69584112 0.52306,1.9305 0.980791,3.5438061 1.01718,3.5851245 0.03639,0.041319 1.597063,0.4925516 3.468163,1.0027403 1.8711,0.5101885 3.488694,0.9540294 3.594654,0.9863124 0.349472,0.106477 0.617346,0.497486 0.617346,0.901124 0,0.364638 -0.228253,0.614418 -4.023,4.402398 -5.364651,5.355086 -4.672315,5.056072 -9.96264,4.30278 l -3.45564,-0.492049 -1.22691,1.226908 -1.226908,1.226909 0.559746,0.689877 c 2.346123,2.891553 3.706598,6.316212 3.986753,10.035671 0.295438,3.922342 -0.697426,7.760612 -2.876518,11.120205 -0.598872,0.923305 -1.703771,2.310141 -2.233478,2.803399 l -0.285012,0.2654 2.644687,2.6506 c 1.454577,1.45783 2.694387,2.784251 2.75513,2.947601 0.211449,0.568619 -0.251065,1.161 -0.906476,1.161 -0.282382,0 -0.696827,-0.370418 -3.084997,-2.757262 l -2.758792,-2.757261 -1.066492,0.713069 C 24.713643,50.965711 20.820002,52.007198 16.75044,51.704011 15.323014,51.597667 13.402045,51.207925 12.198039,50.780384 10.949948,50.33719 9.1290283,49.407563 8.0357383,48.655423 l -1.026,-0.705847 -2.7587775,2.748904 c -2.6243709,2.61498 -2.7785276,2.748906 -3.1641569,2.748906 -0.2996429,0 -0.47445922,-0.07454 -0.67022243,-0.28577 z M 21.286087,49.568056 c 6.339101,-1.302266 11.21246,-6.172129 12.579347,-12.570322 0.321967,-1.507076 0.346676,-4.483608 0.05038,-6.068348 -0.502018,-2.685007 -1.801677,-5.465213 -3.497147,-7.481027 l -0.296926,-0.353028 -2.357606,2.360541 -2.357607,2.360541 0.498469,0.713067 c 1.117654,1.598819 1.613969,3.260534 1.603863,5.369906 -0.0076,1.580746 -0.221788,2.534394 -0.880231,3.918648 -2.407637,5.061617 -8.525589,6.937939 -13.354888,4.095828 -1.029727,-0.606009 -2.636361,-2.161466 -3.167696,-3.066794 -0.5794004,-0.987225 -1.0715638,-2.234523 -1.2673057,-3.211754 -0.2690626,-1.34328 -0.1732975,-3.312453 0.220981,-4.543928 0.9041628,-2.82403 2.8612227,-4.955324 5.5579447,-6.052763 2.849677,-1.159685 6.378313,-0.745607 8.889326,1.043143 0.282288,0.20109 0.550011,0.36562 0.594943,0.36562 0.04493,0 1.126168,-1.046995 2.402749,-2.326656 l 2.321058,-2.326655 -0.378,-0.321719 c -0.2079,-0.176945 -0.81281,-0.616515 -1.344244,-0.976821 -4.126727,-2.79787 -9.36272,-3.510669 -14.133876,-1.924105 -6.9612285,2.314831 -11.5375813,9.274416 -10.8802215,16.546326 0.3682317,4.073489 2.1025305,7.676463 5.0022139,10.392008 2.5098834,2.350498 5.5492706,3.783753 9.0441276,4.264853 1.159862,0.159665 3.903228,0.04964 5.150349,-0.206561 z m -1.532349,-8.378167 c 2.086424,-0.435351 4.083112,-1.981534 5.04766,-3.908776 0.679306,-1.357307 0.883138,-2.329893 0.808245,-3.856566 -0.07568,-1.542651 -0.429091,-2.642879 -1.24497,-3.875754 l -0.273589,-0.413422 -2.821363,2.814008 c -2.020149,2.014882 -2.890561,2.814007 -3.065036,2.814007 -0.613497,0 -1.196,-0.662046 -1.024187,-1.164044 0.035,-0.102276 1.308704,-1.439117 2.830443,-2.970757 l 2.766797,-2.7848 -0.27,-0.209735 c -0.456142,-0.354329 -1.744857,-0.951901 -2.484,-1.15182 -0.857602,-0.231961 -2.810771,-0.258499 -3.672,-0.04989 -0.3267,0.07913 -1.0557,0.364347 -1.62,0.633808 -0.86793,0.414449 -1.16938,0.63331 -1.956655,1.420585 -0.787276,0.787275 -1.006137,1.088726 -1.420586,1.956656 -0.269461,0.5643 -0.554957,1.2933 -0.634435,1.62 -0.205222,0.843574 -0.174372,2.807212 0.05769,3.672 1.051573,3.918731 4.958384,6.292812 8.975987,5.454503 z m 22.14,-23.102414 c 0.410437,-0.195946 1.277348,-0.997992 3.613146,-3.3428 1.69023,-1.696749 3.042232,-3.115912 3.004449,-3.153695 C 48.473553,11.5532 47.122669,11.165227 45.509374,10.728826 43.89608,10.292424 42.463365,9.8614937 42.325563,9.7712025 42.029104,9.5769552 42.04576,9.6263894 41.139641,6.2513858 40.748923,4.7960858 40.404226,3.5349793 40.373647,3.448927 c -0.0702,-0.1975573 -6.235546,5.9254658 -6.524267,6.4794822 -0.354101,0.6794738 -0.354903,1.0511378 -0.0076,3.5116168 0.18395,1.303148 0.360818,2.48728 0.393037,2.631405 0.0532,0.237943 0.236366,0.08447 1.991465,-1.6686 1.802305,-1.800222 1.959649,-1.930645 2.329154,-1.930645 0.493595,0 0.908284,0.426531 0.908284,0.934217 0,0.295109 -0.251328,0.591308 -1.94222,2.288978 l -1.94222,1.950005 2.29322,0.338519 c 2.88739,0.426231 3.321919,0.437422 4.02122,0.10357 z"
     id="path850"
     inkscape:export-xdpi="96"
     inkscape:export-ydpi="96" />
  <path
     style="fill:#003459;fill-opacity:0.37254903;stroke:#000000;stroke-width:0.379208;stroke-miterlimit:0;stroke-opacity:0.372549"
     d="m 21.717461,31.271909 c 2.081352,-2.083123 2.538,-2.470613 2.538,-2.153626 0,0.06291 -0.03959,0.0899 -0.08798,0.06 -0.04839,-0.02991 -1.080695,0.939226 -2.294012,2.153627 -1.213317,1.2144 -2.254642,2.208001 -2.314055,2.208001 -0.05941,0 0.911709,-1.0206 2.158048,-2.268 z"
     id="path973" />
  <path
     id="path842"
     d="M 0.56619973,52.998405 C 0.12153304,52.507054 0.23045231,52.353956 3.0334611,49.530413 c 1.4553,-1.465962 2.6459999,-2.737121 2.6459999,-2.824798 0,-0.08768 -0.3933695,-0.619378 -0.8741545,-1.18156 C 2.7230845,43.089319 1.3784774,40.399741 0.69534899,37.303031 0.48099434,36.331334 0.44894231,35.883635 0.44913202,33.863909 0.44930062,32.068865 0.4931185,31.322212 0.64221292,30.573827 1.9285801,24.116863 6.4468539,18.985888 12.625385,16.965677 c 2.244191,-0.73379 3.095051,-0.846529 5.927799,-0.785435 2.125709,0.04584 2.534996,0.08438 3.488277,0.328429 2.887316,0.73918 4.79255,1.685294 7.586165,3.767191 0.583775,0.435048 0.623994,0.414859 2.075882,-1.041986 l 1.105545,-1.109321 -0.406736,-2.903323 c -0.253431,-1.809012 -0.410151,-3.351101 -0.415796,-4.091323 -0.01346,-1.7649435 -0.111017,-1.6297687 4.57928,-6.3449999 3.55522,-3.5741202 3.982469,-3.96899998 4.294346,-3.96899998 0.242312,0 0.391798,0.0729857 0.497701,0.24299998 0.08325,0.13365 0.528078,1.6038 0.988501,3.267 1.188874,4.2946086 1.089304,4.0062019 1.430446,4.1432654 0.163166,0.065557 1.803266,0.5342623 3.644666,1.0415681 3.47494,0.9573464 3.726,1.0653924 3.726,1.6035184 0,0.159323 -1.224695,1.450493 -3.969,4.184434 -3.599849,3.586254 -4.039153,3.988108 -4.723261,4.320612 -0.719282,0.349601 -0.804429,0.365566 -1.836,0.344261 -0.594957,-0.01229 -2.369639,-0.2129 -3.943739,-0.445807 l -2.862,-0.423465 -1.269,1.250061 c -0.69795,0.687534 -1.269,1.315989 -1.269,1.396568 0,0.08058 0.261558,0.471965 0.581239,0.869746 1.829807,2.276837 2.990548,4.763193 3.646165,7.81024 0.32663,1.518043 0.359095,5.025672 0.06036,6.520998 -0.5731,2.86863 -1.681654,5.364903 -3.37722,7.604915 -0.430926,0.569296 -1.006485,1.251753 -1.279021,1.516572 -0.272536,0.264817 -0.495519,0.532946 -0.495519,0.595841 0,0.0629 0.538771,0.648126 1.197267,1.300513 0.658498,0.652387 1.873498,1.900316 2.7,2.773176 1.56799,1.655932 1.715074,1.913341 1.305229,2.284244 -0.477231,0.431889 -0.626034,0.325111 -3.513565,-2.521261 -1.506474,-1.485 -2.802463,-2.7 -2.879977,-2.7 -0.07751,0 -0.655287,0.334367 -1.283944,0.743038 -2.712114,1.763065 -5.318976,2.665482 -8.494994,2.940709 -2.14266,0.185679 -4.881485,-0.143334 -6.958016,-0.835862 -1.179949,-0.393515 -3.0281805,-1.317638 -4.266,-2.133017 -0.594,-0.391281 -1.1318066,-0.712196 -1.1951257,-0.713144 -0.063319,-9.49e-4 -1.3607332,1.213276 -2.8831424,2.698276 -2.3278602,2.270659 -2.8178073,2.7 -3.0811356,2.7 -0.1722154,0 -0.39355132,-0.08888 -0.49185757,-0.197504 z M 19.881461,49.952062 c 6.693756,-0.629184 12.28101,-5.543598 14.054677,-12.362153 0.297537,-1.143829 0.309031,-1.282365 0.309175,-3.726 1.08e-4,-2.71281 -0.0389,-3.02259 -0.612706,-4.86 -0.67667,-2.166789 -2.837768,-5.90681 -3.485176,-6.03149 -0.139716,-0.02691 -0.897109,0.659906 -2.559208,2.320716 -1.298419,1.297414 -2.360762,2.425736 -2.360762,2.507384 0,0.08165 0.161605,0.373663 0.359123,0.64892 1.273606,1.774886 1.772943,3.552926 1.664657,5.927507 -0.06799,1.490987 -0.302871,2.349516 -1.008717,3.687071 -1.375407,2.606351 -3.710868,4.315049 -6.582233,4.815774 -1.187325,0.207052 -1.934335,0.207052 -3.12166,0 C 14.519294,42.527648 13.124202,41.769329 11.500825,40.141432 10.630912,39.269096 10.383912,38.940508 9.9650439,38.09836 9.112009,36.383306 8.9751928,35.79811 8.9750469,33.863909 c -1.512e-4,-1.994422 0.1284114,-2.58006 0.9127826,-4.158 0.9363515,-1.883682 2.3003305,-3.245679 4.1674615,-4.161404 1.379262,-0.676453 2.3429,-0.892969 3.99017,-0.896535 2.048196,-0.0044 3.533444,0.430457 5.227744,1.530725 0.380459,0.247067 0.760776,0.449214 0.84515,0.449214 0.233194,0 4.902001,-4.65844 4.865345,-4.854539 -0.04541,-0.242929 -1.778542,-1.512984 -2.950898,-2.162448 -2.701237,-1.496433 -5.453989,-2.14359 -8.627445,-2.028264 -4.144425,0.150612 -7.7956682,1.753032 -10.7557296,4.720363 -2.7993551,2.80623 -4.3648951,6.113842 -4.7596882,10.056084 -0.2851692,2.847584 0.3373884,6.047838 1.7108865,8.794804 1.4149966,2.829962 3.9044109,5.408311 6.6853863,6.924221 2.988338,1.628945 5.981866,2.213574 9.595249,1.873932 z m 0.684171,-8.777561 c 1.185101,-0.411918 1.910904,-0.888266 2.993416,-1.964592 1.060939,-1.054875 1.559314,-1.864638 1.994082,-3.24 0.191421,-0.60555 0.238948,-1.013914 0.238823,-2.052 -2.16e-4,-1.845627 -0.182075,-2.516404 -1.217841,-4.492153 -0.07492,-0.142915 -0.168592,-0.329855 -0.208153,-0.415419 -0.03956,-0.08556 -0.126441,-0.173743 -0.193066,-0.195951 -0.179272,-0.05976 -2.203209,1.830002 -3.645394,3.403719 -1.535417,1.675451 -2.19776,2.293804 -2.45699,2.293804 -0.242079,0 -0.727048,-0.467793 -0.727048,-0.7013 0,-0.09412 1.269399,-1.455563 2.820885,-3.02544 1.899458,-1.921971 2.800724,-2.906865 2.759161,-3.015179 -0.1521,-0.396364 -2.171224,-1.364031 -3.269999,-1.567151 -0.894965,-0.165443 -2.591703,-0.141392 -3.340356,0.04735 -0.354031,0.08925 -1.132092,0.402227 -1.729026,0.695498 -0.948475,0.46598 -1.20047,0.653205 -1.99837,1.48472 -0.963588,1.004189 -1.394984,1.704477 -1.883496,3.057502 -0.261446,0.724124 -0.292436,0.958852 -0.2923,2.214 1.83e-4,1.658265 0.168661,2.433181 0.786622,3.618 1.052907,2.018744 2.783127,3.404373 5.002016,4.005814 1.132773,0.307044 3.260577,0.233362 4.367034,-0.151222 z M 41.973256,18.239318 c 0.461053,-0.226207 1.247736,-0.948263 3.639205,-3.340236 1.956012,-1.956425 3.051,-3.128946 3.051,-3.267033 0,-0.251114 0.09027,-0.218271 -2.862,-1.041279 C 42.233803,9.5962089 42.332872,9.6380481 42.139534,9.0442569 42.003248,8.6256887 41.163705,5.5916838 40.677021,3.7589091 c -0.08849,-0.3332357 -0.177309,-0.459 -0.324163,-0.459 -0.421554,0 -6.316857,5.8506759 -6.766224,6.7150049 -0.261075,0.502159 -0.22872,1.554506 0.122273,3.976995 0.300128,2.071417 0.38303,2.376 0.646702,2.376 0.0861,0 1.005719,-0.8262 2.043594,-1.836 2.002981,-1.948797 2.201938,-2.07032 2.652258,-1.62 0.1188,0.1188 0.216,0.319813 0.216,0.446696 0,0.154097 -0.627535,0.864399 -1.89,2.139274 -1.0395,1.049719 -1.89,1.992331 -1.89,2.094695 0,0.102362 0.06619,0.211514 0.147086,0.242556 0.327283,0.125591 4.383476,0.675746 5.042709,0.68396 0.560327,0.007 0.830345,-0.05131 1.296,-0.279772 z"
     style="fill:#003459;stroke:#003459;stroke-width:0.379208;stroke-miterlimit:0" />
</svg>
