<?xml version="1.0" encoding="UTF-8" standalone="no"?>
<svg
   xmlns:dc="http://purl.org/dc/elements/1.1/"
   xmlns:cc="http://creativecommons.org/ns#"
   xmlns:rdf="http://www.w3.org/1999/02/22-rdf-syntax-ns#"
   xmlns:svg="http://www.w3.org/2000/svg"
   xmlns="http://www.w3.org/2000/svg"
   xmlns:sodipodi="http://sodipodi.sourceforge.net/DTD/sodipodi-0.dtd"
   xmlns:inkscape="http://www.inkscape.org/namespaces/inkscape"
   inkscape:version="1.0 (1.0+r73+1)"
   sodipodi:docname="icon-3.svg"
   id="svg14"
   version="1.1"
   viewBox="0 0 50 54"
   height="54px"
   width="50px">
  <metadata
     id="metadata20">
    <rdf:RDF>
      <cc:Work
         rdf:about="">
        <dc:format>image/svg+xml</dc:format>
        <dc:type
           rdf:resource="http://purl.org/dc/dcmitype/StillImage" />
      </cc:Work>
    </rdf:RDF>
  </metadata>
  <defs
     id="defs18" />
  <sodipodi:namedview
     inkscape:current-layer="svg14"
     inkscape:window-maximized="1"
     inkscape:window-y="27"
     inkscape:window-x="0"
     inkscape:cy="35.152016"
     inkscape:cx="25"
     inkscape:zoom="9.2592593"
     showgrid="false"
     id="namedview16"
     inkscape:window-height="704"
     inkscape:window-width="1366"
     inkscape:pageshadow="2"
     inkscape:pageopacity="0"
     guidetolerance="10"
     gridtolerance="10"
     objecttolerance="10"
     borderopacity="1"
     bordercolor="#666666"
     pagecolor="#ffffff" />
  <!-- Generator: Sketch 58 (84663) - https://sketch.com -->
  <title
     id="title2">Group</title>
  <desc
     id="desc4">Created with Sketch.</desc>
  <g
     stroke-linejoin="round"
     stroke-linecap="round"
     fill-rule="evenodd"
     fill="none"
     stroke-width="1"
     stroke="none"
     id="Page-1">
    <g
       stroke-width="2"
       stroke="#000000"
       transform="translate(1.000000, 1.000000)"
       id="Group">
      <g
         id="analytics-pie-2">
        <path
           id="Shape"
           d="M27.3,0.65 L27.3,20.93 L47.58,20.93 C47.58,9.72966527 38.5003347,0.65 27.3,0.65 Z" />
        <path
           id="path7"
           d="M20.54,31.07 L20.54,10.79 C11.6605554,10.7907674 3.81417979,16.5678883 1.17689862,25.0466432 C-1.46038254,33.5253981 1.7247972,42.7338381 9.03721033,47.771015 C16.3496235,52.8081919 26.0885834,52.5025827 33.0707867,47.01684 L20.54,31.07 Z" />
        <path
           id="path9"
           d="M47.5800138,27.69 L27.3,27.69 L39.8307867,43.63684 C44.7274921,39.7947455 47.5851365,33.9140974 47.5800138,27.69 Z" />
      </g>
    </g>
  </g>
  <path
     id="path845"
     d="M 18.57158,53.078455 C 13.360997,52.317331 8.6205305,49.666354 5.2522792,45.63 4.1322561,44.287817 3.2810872,42.962566 2.4776718,41.31 -1.0546333,34.044309 -0.17250941,25.553204 4.7889721,19.062 5.4930756,18.140808 7.2009665,16.397714 8.152,15.629654 c 3.610317,-2.915711 8.144868,-4.622727 12.605573,-4.745324 1.079914,-0.02968 1.110014,-0.02391 1.404,0.269095 l 0.300427,0.299425 0.054,10.207656 0.054,10.207654 6.2046,7.898164 c 6.767115,8.614217 6.530973,8.260539 5.94,8.896523 -0.465714,0.501185 -2.488683,1.772732 -3.9366,2.47437 -2.107045,1.021043 -4.065675,1.621418 -6.348218,1.945909 -1.363249,0.193803 -4.516681,0.191289 -5.858202,-0.0047 z m 4.97042,-1.78319 c 1.355763,-0.154773 2.881186,-0.477912 4.067751,-0.861692 1.575989,-0.509736 5.058249,-2.308467 5.058249,-2.612794 0,-0.0465 -2.721591,-3.547348 -6.047981,-7.779662 l -6.04798,-7.695117 -2e-5,-9.808772 -1.9e-5,-9.808771 -0.621,0.06715 c -3.578729,0.386941 -6.378872,1.364525 -9.112939,3.1815 -2.8132328,1.869587 -5.0597722,4.406932 -6.5610324,7.41033 C 2.988072,25.966101 2.3670235,28.392373 2.2465434,31.32 2.0439649,36.242591 3.7034533,40.975155 6.9639787,44.773281 8.5693414,46.643339 10.528955,48.150577 12.85,49.30052 c 1.770475,0.877168 2.992416,1.316025 4.646724,1.668862 1.952138,0.416358 4.194075,0.537214 6.045276,0.325883 z"
     style="fill:#003459;stroke:#003459;stroke-width:0.379208;stroke-miterlimit:0" />
  <path
     id="path847"
     d="M 27.693275,22.581891 27.376,22.264616 V 11.775399 1.2861818 l 0.265091,-0.2650909 c 0.247225,-0.24722546 0.340026,-0.26504799 1.377,-0.26445423 3.171599,0.001816 6.954642,1.08519403 9.954629,2.85078063 5.875746,3.4580601 9.687469,9.3714637 10.429042,16.1793267 0.191454,1.757605 0.157332,2.399107 -0.146392,2.752234 L 48.99474,22.842 38.502645,22.870583 28.01055,22.899165 Z M 47.538201,20.098544 C 47.442859,18.862173 47.082685,17.197287 46.591175,15.720954 44.776161,10.269263 40.520942,5.8608846 35.130524,3.8477927 33.463767,3.2253299 32.053579,2.9095413 29.779,2.6494061 L 29.212,2.5845603 V 11.76828 20.952 h 9.196008 9.196006 z"
     style="fill:#003459;stroke:#003459;stroke-width:0.379208;stroke-miterlimit:0" />
  <path
     id="path853"
     d="M 40.179915,45.225 C 39.977012,45.03195 37.013126,41.307517 33.593501,36.948484 26.756522,28.233312 27.012537,28.621035 27.708286,28.035601 L 28.040573,27.756 h 10.422021 10.422022 l 0.315691,0.315692 c 0.292992,0.292992 0.315693,0.374137 0.315693,1.128469 0,2.686345 -0.82075,6.015614 -2.160017,8.761839 -1.144311,2.346458 -2.406253,4.070835 -4.400424,6.012946 -1.763609,1.71757 -2.116994,1.876722 -2.775644,1.250054 z m 2.096397,-3.186 c 1.41729,-1.505718 2.305314,-2.761602 3.226453,-4.563 1.126775,-2.203544 1.856452,-4.701204 2.028918,-6.944923 L 47.603865,29.592 h -8.655932 c -4.760763,0 -8.655933,0.02766 -8.655933,0.06146 0,0.160027 10.619249,13.546542 10.746194,13.546542 0.07992,0 0.637069,-0.52245 1.238118,-1.161 z"
     style="fill:#003459;stroke:#003459;stroke-width:0.379208;stroke-miterlimit:0" />
</svg>
