<?xml version="1.0" encoding="UTF-8" standalone="no"?>
<svg
   xmlns:dc="http://purl.org/dc/elements/1.1/"
   xmlns:cc="http://creativecommons.org/ns#"
   xmlns:rdf="http://www.w3.org/1999/02/22-rdf-syntax-ns#"
   xmlns:svg="http://www.w3.org/2000/svg"
   xmlns="http://www.w3.org/2000/svg"
   xmlns:xlink="http://www.w3.org/1999/xlink"
   xmlns:sodipodi="http://sodipodi.sourceforge.net/DTD/sodipodi-0.dtd"
   xmlns:inkscape="http://www.inkscape.org/namespaces/inkscape"
   inkscape:version="1.0 (1.0+r73+1)"
   sodipodi:docname="LOGO WHITE BACKGROUND.SVG"
   id="svg261"
   viewBox="0 0 500 500"
   style="clip-rule:evenodd;fill-rule:evenodd;image-rendering:optimizeQuality;shape-rendering:geometricPrecision;text-rendering:geometricPrecision"
   version="1.1"
   height="48"
   width="48"
   xml:space="preserve"><metadata
   id="metadata265"><rdf:RDF><cc:Work
       rdf:about=""><dc:format>image/svg+xml</dc:format><dc:type
         rdf:resource="http://purl.org/dc/dcmitype/StillImage" /><dc:title></dc:title></cc:Work></rdf:RDF></metadata><sodipodi:namedview
   inkscape:current-layer="svg261"
   inkscape:window-maximized="1"
   inkscape:window-y="27"
   inkscape:window-x="0"
   inkscape:cy="17.235304"
   inkscape:cx="20.710021"
   inkscape:zoom="12.163707"
   units="px"
   showgrid="false"
   id="namedview263"
   inkscape:window-height="704"
   inkscape:window-width="1366"
   inkscape:pageshadow="2"
   inkscape:pageopacity="0"
   guidetolerance="10"
   gridtolerance="10"
   objecttolerance="10"
   borderopacity="1"
   bordercolor="#666666"
   pagecolor="#ffffff" />
 <defs
   id="defs28">
  <style
   id="style2"
   type="text/css">
   <![CDATA[
    .str0 {stroke:#3268B0;stroke-width:83.33;stroke-miterlimit:2.61313}
    .str1 {stroke:#373435;stroke-width:10;stroke-miterlimit:2.61313}
    .fil10 {fill:none}
    .fil5 {fill:#FEFEFE}
    .fil2 {fill:#3E88C7}
    .fil9 {fill:#373435;fill-rule:nonzero}
    .fil8 {fill:#373435;fill-rule:nonzero}
    .fil3 {fill:url(#id0)}
    .fil7 {fill:url(#id1)}
    .fil6 {fill:url(#id2)}
    .fil4 {fill:url(#id3)}
    .fil1 {fill:url(#id4)}
    .fil0 {fill:url(#id5)}
   ]]>
  </style>
  <linearGradient
   y2="2735.79"
   x2="3900.47"
   y1="5357.52"
   x1="3876.96"
   gradientUnits="userSpaceOnUse"
   id="id0">
   <stop
   id="stop4"
   style="stop-opacity:1; stop-color:#3E88C7"
   offset="0" />
   <stop
   id="stop6"
   style="stop-opacity:1; stop-color:#3A448D"
   offset="1" />
  </linearGradient>
  <linearGradient
   y2="3964.5901"
   x2="4281.6001"
   y1="4523.5298"
   x1="4274.7598"
   gradientUnits="userSpaceOnUse"
   id="id1">
   <stop
   id="stop9"
   style="stop-opacity:1; stop-color:#3F89C9"
   offset="0" />
   <stop
   id="stop11"
   style="stop-opacity:1; stop-color:#3A448D"
   offset="1" />
  </linearGradient>
  <linearGradient
   y2="3969.52"
   x2="3609.9299"
   y1="4570.1099"
   x1="3423.3899"
   xlink:href="#id0"
   gradientUnits="userSpaceOnUse"
   id="id2">
  </linearGradient>
  <linearGradient
   y2="7052.7798"
   x2="3131.22"
   y1="3042.78"
   x1="3215.76"
   xlink:href="#id0"
   gradientUnits="userSpaceOnUse"
   id="id3">
  </linearGradient>
  <radialGradient
   fy="0.5"
   fx="0.5"
   r="0.5"
   cy="0.5"
   cx="0.5"
   gradientUnits="objectBoundingBox"
   id="id4">
   <stop
   id="stop16"
   style="stop-opacity:1; stop-color:white"
   offset="0" />
   <stop
   id="stop18"
   style="stop-opacity:1; stop-color:#9AB6D3"
   offset="0.219608" />
   <stop
   id="stop20"
   style="stop-opacity:1; stop-color:#558CB6"
   offset="0.439216" />
   <stop
   id="stop22"
   style="stop-opacity:1; stop-color:#387EAB"
   offset="0.529412" />
   <stop
   id="stop24"
   style="stop-opacity:0; stop-color:#0089A0"
   offset="1" />
  </radialGradient>
  <radialGradient
   fy="3109.1399"
   fx="1859.14"
   r="1195.4301"
   cy="3109.1399"
   cx="1859.14"
   xlink:href="#id4"
   gradientTransform="matrix(1.01781,0,0,1.01781,-33,-55)"
   gradientUnits="userSpaceOnUse"
   id="id5">
  </radialGradient>
 <linearGradient
   y2="2735.79"
   x2="3900.47"
   y1="5357.52"
   x1="3876.96"
   gradientUnits="userSpaceOnUse"
   id="linearGradient1090"
   xlink:href="#id0"
   inkscape:collect="always" /></defs>
<symbol
   viewBox="-531.58 718.42 4781.43 4781.43"
   id="YES3">
</symbol>
<symbol
   viewBox="-531.73 718.27 4781.73 4781.73"
   id="YES2">
 <path
   id="path31"
   d="M 4250,3109.13 C 4250,1788.98 3180.5,718.27 1860.35,718.27 c -1321.36,0 -2392.08,1069.5 -2392.08,2390.86 0,1321.36 1070.72,2390.86 2392.08,2390.86 C 3180.5,5499.99 4250,4429.28 4250,3109.13 Z"
   class="fil0" />
</symbol>
<symbol
   viewBox="-535.99 716.14 4785.99 4786"
   id="YES">
 <path
   id="path34"
   d="m 4250,3109.13 c 0,-1322.33 -1070.67,-2393 -2393,-2393 -1322.33,0 -2393,1070.67 -2393,2393 0,1322.33 1070.66,2393 2393,2393 1322.33,0 2393,-1070.67 2393,-2393 z"
   class="fil1" />
</symbol>
 <g
   transform="matrix(0.11320374,0,0,0.12813363,-188.90206,-279.39089)"
   id="Layer_x0020_1">
  <metadata
   id="CorelCorpID_0Corel-Layer" />
  <path
   id="path38"
   d="m 2325.17,3254.2 1563.26,-406.43 1555.64,406.97 c 125.07,32.72 182.8,198.76 182.8,252.81 v 861.71 c 0,147.78 -84.54,230.97 -154.91,250.13 l -1578.55,429.77 -1568.35,-429 c -50.39,-13.79 -169.6,-143.34 -169.6,-250.9 v -861.71 c 0,-105.51 113.78,-238.8 169.72,-253.35 z"
   class="fil2 str0" />
  <path
   style="fill:url(#linearGradient1090)"
   id="path40"
   d="m 5540.28,4118.22 v 238.06 c 0,83.91 -56.19,190.27 -151.5,234.04 l -1491.75,407.09 -1446.95,-396.6 h -0.07 l -21.19,-5.79 c -75.78,-17.75 -172.23,-140.71 -177.01,-238.75 v -273.33 c 168.59,-51.41 528.69,-164.49 603.71,-212.89 98.72,-42.45 189.85,-15.44 296.17,-67.54 106.31,-52.1 119.6,-108.06 406.27,-146.66 199.95,-47.7 233.51,-110 419.57,-110 214.53,0 459.43,212.27 556.25,243.15 170.86,88.77 301.86,73.33 408.17,125.43 106.31,36.67 330.33,146.66 476.52,162.1 50.04,16.13 89.76,29.96 121.81,41.69 z"
   class="fil3" />
  <path
   style="fill:url(#id3)"
   id="path42"
   d="m 4163.52,3735.04 c -59.4,115.9 -268.53,159.93 -268.53,264.78 0,0 172.1,293.61 -276.45,356.5 -448.53,62.97 -865.77,52.46 -1027.47,141.55 -64.94,35.93 -116.9,70.46 -155.79,98.98 l -19.6,-5.26 c -76.7,-17.77 -174.31,-140.85 -179.15,-238.98 v -273.59 c 170.62,-51.46 535.06,-164.65 611,-213.09 99.91,-42.5 192.14,-15.46 299.74,-67.61 107.6,-52.15 121.05,-108.17 411.17,-146.8 202.37,-47.75 236.35,-110.1 424.63,-110.1 5.93,0 11.84,0.15 17.76,0.47 58.18,17.45 162.7,66.44 162.7,193.15 z"
   class="fil4" />
  <path
   id="path44"
   d="m 2325.17,3254.2 1563.25,-406.43 1555.65,406.97 c 125.07,32.72 182.8,198.76 182.8,252.81 v 861.71 c 0,147.78 -84.54,230.97 -154.91,250.13 l -1578.55,429.77 -1568.35,-429 c -50.39,-13.78 -169.6,-143.34 -169.6,-250.9 v -861.71 c 0,-105.52 113.78,-238.8 169.72,-253.35 z m 89.14,53.22 1474.27,-375.28 1467.09,375.78 c 117.94,30.21 172.39,183.53 172.39,233.43 V 4337 c 0,136.45 -79.73,213.26 -146.09,230.95 L 3893.27,4964.78 2414.2,4568.67 C 2366.68,4555.94 2254.26,4436.32 2254.26,4337 v -795.65 c 0,-97.43 107.3,-220.5 160.06,-233.93 z"
   class="fil5" />
  <use
   id="use46"
   xlink:href="#YES3"
   height="4781.4302"
   width="4781.4302"
   y="-885022.31"
   x="883055.25"
   transform="scale(0.00397029,-0.00397029)" />
  <use
   id="use48"
   xlink:href="#YES3"
   height="4781.4302"
   width="4781.4302"
   y="-879524.75"
   x="907126.38"
   transform="scale(0.00397029,-0.00397029)" />
  <use
   id="use50"
   xlink:href="#YES3"
   height="4781.4302"
   width="4781.4302"
   y="-871975"
   x="924060.12"
   transform="scale(0.00397029,-0.00397029)" />
  <use
   id="use52"
   xlink:href="#YES3"
   height="4781.4302"
   width="4781.4302"
   y="-881007.62"
   x="931018.25"
   transform="scale(0.00397029,-0.00397029)" />
  <use
   id="use54"
   xlink:href="#YES3"
   height="4781.4302"
   width="4781.4302"
   y="-896637"
   x="1059363.2"
   transform="scale(0.00397029,-0.00397029)" />
  <use
   id="use56"
   xlink:href="#YES3"
   height="4781.4302"
   width="4781.4302"
   y="-887459.44"
   x="1028393.5"
   transform="scale(0.00397029,-0.00397029)" />
  <use
   id="use58"
   xlink:href="#YES"
   height="4786"
   width="4785.9902"
   y="-1911865.2"
   x="2542871.5"
   transform="scale(0.00177107,-0.00177107)" />
  <use
   id="use60"
   xlink:href="#YES"
   height="4786"
   width="4785.9902"
   y="-1942603.1"
   x="2560075.5"
   transform="scale(0.00177107,-0.00177107)" />
  <use
   id="use62"
   xlink:href="#YES"
   height="4786"
   width="4785.9902"
   y="-1929010.8"
   x="1936034.8"
   transform="scale(0.00177107,-0.00177107)" />
  <use
   id="use64"
   xlink:href="#YES"
   height="4786"
   width="4785.9902"
   y="-2014866"
   x="1987144.6"
   transform="scale(0.00177107,-0.00177107)" />
  <use
   id="use66"
   xlink:href="#YES"
   height="4786"
   width="4785.9902"
   y="-2011460.8"
   x="2007685.1"
   transform="scale(0.00177107,-0.00177107)" />
  <use
   id="use68"
   xlink:href="#YES"
   height="4786"
   width="4785.9902"
   y="-1857301.9"
   x="2207247.5"
   transform="scale(0.00177107,-0.00177107)" />
  <use
   id="use70"
   xlink:href="#YES"
   height="4786"
   width="4785.9902"
   y="-283913.5"
   x="302780.62"
   transform="scale(0.011389,-0.011389)" />
  <use
   id="use72"
   xlink:href="#YES"
   height="4786"
   width="4785.9902"
   y="-2009531.9"
   x="2185882"
   transform="scale(0.00177107,-0.00177107)" />
  <use
   id="use74"
   xlink:href="#YES"
   height="4786"
   width="4785.9902"
   y="-1973707.8"
   x="1978111.4"
   transform="scale(0.00177107,-0.00177107)" />
  <use
   id="use76"
   xlink:href="#YES"
   height="4786"
   width="4785.9902"
   y="-1970314.9"
   x="1931585.8"
   transform="scale(0.00177107,-0.00177107)" />
  <use
   id="use78"
   xlink:href="#YES"
   height="4786"
   width="4785.9902"
   y="-1933338.6"
   x="2192807.5"
   transform="scale(0.00177107,-0.00177107)" />
  <use
   id="use80"
   xlink:href="#YES"
   height="4786"
   width="4785.9902"
   y="-1922926.8"
   x="2184609.5"
   transform="scale(0.00177107,-0.00177107)" />
  <use
   id="use82"
   xlink:href="#YES"
   height="4786"
   width="4785.9902"
   y="-1913489.5"
   x="2562389"
   transform="scale(0.00177107,-0.00177107)" />
  <path
   style="fill:url(#id2)"
   id="path84"
   d="m 3484.38,3949.97 c -9.78,-2.33 -20,-3.56 -30.56,-3.56 -6.76,0 -13.33,0.47 -19.78,1.46 h -0.33 c -0.31,0.1 -0.54,0.1 -0.86,0.16 -3.18,0.54 -6.35,1.15 -9.46,1.87 -44.54,10.22 -80.19,42.54 -94.08,84.33 -2.23,6.55 -3.91,13.38 -4.94,20.4 -0.95,6.08 -1.44,12.3 -1.44,18.61 v 496.49 l 100.46,0.4 v -509.24 c 0,-4.01 0.33,-8.01 0.96,-11.94 1.11,-7.92 3.41,-15.46 6.68,-22.53 10.17,-21.72 29.54,-38.56 53.36,-45.64 8.03,-2.39 16.6,-3.69 25.41,-3.69 14.06,0 27.33,3.23 38.99,8.98 -17.15,-17.56 -39.4,-30.33 -64.41,-36.09 z"
   class="fil6" />
  <path
   style="fill:url(#id1)"
   id="path86"
   d="m 4219.69,3941.2 c 8.82,-2.34 18.07,-3.57 27.61,-3.57 6.12,0 12.06,0.47 17.86,1.46 h 0.3 c 0.29,0.07 0.48,0.07 0.78,0.18 2.89,0.53 5.74,1.14 8.52,1.82 40.25,10.23 72.46,42.57 85.03,84.35 2,6.54 3.51,13.39 4.44,20.4 0.87,6.07 1.3,12.31 1.3,18.63 v 517.72 l -90.76,0.39 v -530.51 c 0,-3.99 -0.28,-8.01 -0.84,-11.91 -1.02,-7.94 -3.08,-15.49 -6.01,-22.56 -9.21,-21.7 -26.69,-38.56 -48.22,-45.64 -7.26,-2.38 -14.99,-3.69 -22.95,-3.69 -12.7,0 -24.68,3.22 -35.21,9.01 15.48,-17.55 35.57,-30.34 58.16,-36.09 z"
   class="fil7" />
  <polygon
   id="polygon88"
   points="3152.13,4056.63 3152.13,4116.8 3322.8,4119.27 3322.8,4048.57 "
   class="fil5" />
  <polygon
   id="polygon90"
   points="3152.13,4130.38 3152.13,4187.94 3322.8,4205.78 3322.8,4136.07 "
   class="fil5" />
  <polygon
   id="polygon92"
   points="3152.13,4198.2 3152.13,4255.76 3322.8,4289.41 3322.8,4219.67 "
   class="fil5" />
  <polygon
   id="polygon94"
   points="3152.13,4264.3 3152.13,4322.53 3322.8,4371.87 3322.8,4301.39 "
   class="fil5" />
  <polygon
   id="polygon96"
   points="3152.13,4333.2 3152.13,4391.39 3322.8,4456.49 3322.8,4386.08 "
   class="fil5" />
  <polygon
   id="polygon98"
   points="3152.13,4407.38 3152.13,4484.65 3322.8,4570.01 3322.8,4476.09 "
   class="fil5" />
  <path
   id="path100"
   d="m 3443.33,3948.33 c 6.22,-1 12.62,-1.46 19.15,-1.46 10.24,0 20.16,1.22 29.63,3.55 24.25,5.77 45.78,18.55 62.41,36.07 8.31,8.8 15.39,18.79 20.87,29.64 l 297.88,-23.63 263.81,20.32 c 5.92,-13.55 14.17,-25.86 24.16,-36.38 19.85,-21.1 46.86,-35.35 77.19,-38.79 l -365.16,-54.34 -429.93,65.01 z"
   class="fil5" />
  <path
   id="path102"
   d="m 4291.45,3947.31 c 35.09,15.4 61.71,46.1 71.63,83.73 l 4.31,0.3 201.31,15.46 v -58.24 l -201.31,-29.94 -75.93,-11.32 z"
   class="fil5" />
  <polygon
   id="polygon104"
   points="4563.6,3970.32 4563.6,3913.69 3855.33,3741.99 3147.06,3916.15 3147.06,3972.55 3858.04,3847.21 "
   class="fil5" />
  <polygon
   id="polygon106"
   points="4367.39,4047.36 4367.39,4119.54 4568.7,4116 4568.7,4056.84 "
   class="fil5" />
  <polygon
   id="polygon108"
   points="4367.39,4135.13 4367.39,4207.14 4568.7,4185.67 4568.7,4128.02 "
   class="fil5" />
  <polygon
   id="polygon110"
   points="4367.39,4219.27 4367.39,4291.23 4568.7,4251.2 4568.7,4193.49 "
   class="fil5" />
  <polygon
   id="polygon112"
   points="4367.39,4307.41 4367.39,4380.12 4568.7,4321.54 4568.7,4263.22 "
   class="fil5" />
  <polygon
   id="polygon114"
   points="4367.39,4396.27 4367.39,4468.98 4568.7,4391.8 4568.7,4333.55 "
   class="fil5" />
  <polygon
   id="polygon116"
   points="4367.39,4482.8 4367.39,4580.6 4568.7,4479.87 4568.7,4401.28 "
   class="fil5" />
  <path
   id="path118"
   d="m 3152.13,4048.52 176.84,-13.99 c 13.48,-41.8 48.02,-74.12 91.19,-84.35 v -0.46 l -268.03,40.54 v 58.26 h 0.01 z"
   class="fil5" />
  <polygon
   id="polygon120"
   points="3584.23,4689.94 3870.67,4832.63 3870.98,4832.79 4126.45,4705.5 4126.45,4584.44 3870.67,4687.95 3584.23,4572.52 "
   class="fil5" />
  <polygon
   id="polygon122"
   points="4126.45,4565.09 4126.45,4474.35 3870.67,4553.99 3584.23,4465.34 3584.23,4553.83 3870.67,4663.11 "
   class="fil5" />
  <polygon
   id="polygon124"
   points="4126.45,4456.18 4126.45,4365.37 3870.67,4421.39 3584.23,4359.23 3584.23,4447.81 3870.67,4530.61 "
   class="fil5" />
  <polygon
   id="polygon126"
   points="4126.45,4347.7 4126.45,4257.8 3870.67,4290.5 3584.23,4254.48 3584.23,4342.13 3870.67,4398.54 "
   class="fil5" />
  <polygon
   id="polygon128"
   points="4126.45,4238.72 4126.45,4148.85 3870.67,4157.92 3584.23,4148.37 3584.23,4236.03 3870.67,4265.96 "
   class="fil5" />
  <polygon
   id="polygon130"
   points="3855.33,3707.13 4563.6,3892.22 4563.6,3828.5 3855.33,3585.93 3147.06,3824.7 3147.06,3893.97 "
   class="fil5" />
  <polygon
   id="polygon132"
   points="4257.19,3388.99 3847.56,3255 3847.46,3255 3407.28,3398.83 3407.28,3442.71 3847.56,3297.7 4257.19,3431.23 "
   class="fil5" />
  <polygon
   id="polygon134"
   points="3407.28,3471.26 3407.28,3699.42 3847.56,3555.14 4257.19,3689.43 4257.19,3461.25 3847.56,3326.96 "
   class="fil5" />
  <polygon
   id="polygon136"
   points="3584.23,4126.16 3876.36,4130.4 3878.29,4130.4 4126.45,4126.79 4126.45,4037.91 3876.36,4026.14 3584.23,4039.9 "
   class="fil5" />
  <path
   id="path138"
   d="m 4511.69,3362.98 c 7.47,-32.26 62.59,-51.24 81.05,-80.28 9.06,2.68 8.34,12.5 2.78,25.98 6.71,5.08 -4.54,11.41 -6.77,17.07 23.41,-2.12 36.45,-9.33 51.3,-17.35 8.79,4.54 5.4,12.33 -9.11,23.09 0.44,4.96 -2.51,9.5 -8.84,13.65 0.93,9.22 -4.7,13.85 -13.26,16.31 2.78,7.04 -0.98,11.96 -10.15,14.9 3.05,3.71 2.3,6.6 -2.24,8.74 l 4.42,4.63 c 1.42,2.63 1.64,5.63 1.14,8.8 2.78,-9.99 5.62,-12.61 8.63,-4.16 20.14,-27.39 33.94,-23.63 20.19,-0.65 21.45,-11.62 23.46,-6.82 9.38,11.68 37.65,-16.37 41.69,-14.3 18.88,2.39 11.57,-1.09 20.53,-1.52 19.33,1.47 -35.04,30.89 -52.55,6.56 -79.07,28.49 -45.47,25.93 -104.52,7.86 -108.34,-40.71 -2.62,-10.75 -10.21,-19.91 -26.9,-26.3 16.38,-13.43 32.31,-17.69 47.59,-7.75 v 0 z"
   class="fil5" />
  <path
   id="path140"
   d="m 1961.78,5630.02 h -50.77 l -14.46,-47.14 h -73.94 l -14.31,47.14 h -50.48 l 75.22,-211.53 h 55.24 l 73.49,211.53 z m -75.95,-83.71 -22.33,-71.01 c -1.62,-5.34 -2.8,-11.69 -3.49,-19.04 h -1.13 c -0.49,6.19 -1.67,12.34 -3.64,18.43 l -22.57,71.61 h 53.17 z m 263.18,-89.14 h -59.03 v 172.85 h -46.63 v -172.85 h -58.74 v -38.68 h 164.4 z m 167.11,172.85 h -123.08 v -211.53 h 46.63 v 172.85 h 76.44 v 38.68 z m 168.04,0 H 2360.2 v -211.53 h 119.24 v 38.68 h -72.61 v 47.14 h 67.59 v 38.68 h -67.59 v 48.35 h 77.33 z m 228.25,0 h -46.63 v -86.12 h -85.6 v 86.12 h -46.63 v -211.53 h 46.63 v 84.31 h 85.6 v -84.31 h 46.63 z m 245.37,0 h -50.77 l -14.46,-47.14 h -73.94 l -14.31,47.14 h -50.47 l 75.22,-211.53 h 55.24 l 73.5,211.53 z m -75.96,-83.71 -22.33,-71.01 c -1.63,-5.34 -2.8,-11.69 -3.49,-19.04 h -1.13 c -0.49,6.19 -1.67,12.34 -3.64,18.43 l -22.58,71.61 h 53.17 z m 303.91,83.71 h -46.93 l -85.25,-132.91 c -4.97,-7.76 -8.46,-13.59 -10.38,-17.52 h -0.54 c 0.74,7.45 1.13,18.83 1.13,34.2 v 116.24 h -43.98 V 5418.5 h 50.17 l 82,128.78 c 3.74,5.8 7.18,11.54 10.38,17.28 h 0.54 c -0.74,-4.94 -1.13,-14.61 -1.13,-29.06 v -117 h 43.98 v 211.53 z m 233.22,-14.2 c -20.17,11.89 -45.26,17.83 -75.26,17.83 -33.26,0 -59.47,-9.42 -78.66,-28.26 -19.19,-18.83 -28.78,-44.77 -28.78,-77.81 0,-33.24 10.48,-60.34 31.43,-81.29 20.96,-20.95 48.8,-31.43 83.58,-31.43 21.94,0 41.22,3.13 57.94,9.37 v 44.72 c -15.94,-9.47 -35.47,-14.2 -58.54,-14.2 -19.29,0 -35.02,6.39 -47.18,19.24 -12.15,12.84 -18.25,30.02 -18.25,51.42 0,21.76 5.46,38.57 16.39,50.46 10.87,11.94 25.63,17.88 44.17,17.88 11.12,0 19.97,-1.61 26.52,-4.89 v -41.35 h -41.32 v -38.07 h 87.96 v 106.37 z m 389.65,14.2 h -46.04 V 5503.4 c 0,-13.7 0.59,-28.81 1.72,-45.33 h -1.13 c -2.41,13 -4.57,22.31 -6.49,28.06 l -48.41,143.89 h -38.07 l -49.29,-142.43 c -1.33,-3.83 -3.49,-13.65 -6.5,-29.51 h -1.28 c 1.23,20.85 1.87,39.19 1.87,54.9 v 117.05 h -41.91 V 5418.5 h 68.18 l 42.2,125.41 c 3.35,10.02 5.81,20.09 7.33,30.22 h 0.89 c 2.56,-11.69 5.31,-21.86 8.22,-30.52 l 42.25,-125.11 h 66.46 v 211.53 z m 150.53,3.63 c -29.62,0 -53.72,-9.87 -72.36,-29.56 -18.65,-19.74 -27.94,-45.43 -27.94,-77.11 0,-33.44 9.45,-60.48 28.39,-81.13 18.94,-20.65 44.03,-30.98 75.22,-30.98 29.51,0 53.37,9.87 71.57,29.67 18.2,19.74 27.3,45.83 27.3,78.17 0,33.24 -9.44,60.03 -28.33,80.43 -18.84,20.35 -43.48,30.52 -73.83,30.52 z m 2.02,-177.69 c -16.33,0 -29.32,6.24 -38.91,18.78 -9.59,12.54 -14.41,29.16 -14.41,49.81 0,20.95 4.82,37.52 14.41,49.71 9.59,12.19 22.19,18.28 37.78,18.28 16.04,0 28.73,-5.94 38.17,-17.78 9.4,-11.83 14.12,-28.3 14.12,-49.35 0,-21.91 -4.57,-38.98 -13.67,-51.17 -9.15,-12.19 -21.65,-18.28 -37.48,-18.28 z m 336.72,174.06 h -46.93 l -85.25,-132.91 c -4.97,-7.76 -8.46,-13.59 -10.38,-17.52 h -0.54 c 0.74,7.45 1.13,18.83 1.13,34.2 v 116.24 h -43.98 V 5418.5 h 50.18 l 82,128.78 c 3.74,5.8 7.18,11.54 10.38,17.28 h 0.54 c -0.74,-4.94 -1.13,-14.61 -1.13,-29.06 v -117 h 43.98 v 211.53 z m 232.04,-91.67 c 0,63.51 -28.92,95.29 -86.72,95.29 -56.13,0 -84.17,-31.03 -84.17,-93.07 v -122.08 h 46.63 v 122.74 c 0,34.2 13.04,51.32 39.15,51.32 25.63,0 38.47,-16.52 38.47,-49.56 v -124.5 h 46.63 v 119.87 z m 296.73,91.67 h -46.05 V 5503.4 c 0,-13.7 0.59,-28.81 1.72,-45.33 h -1.13 c -2.41,13 -4.57,22.31 -6.49,28.06 l -48.41,143.89 h -38.07 l -49.29,-142.43 c -1.33,-3.83 -3.5,-13.65 -6.49,-29.51 h -1.28 c 1.23,20.85 1.87,39.19 1.87,54.9 v 117.05 h -41.91 V 5418.5 h 68.18 l 42.21,125.41 c 3.35,10.02 5.81,20.09 7.33,30.22 h 0.89 c 2.56,-11.69 5.31,-21.86 8.22,-30.52 l 42.26,-125.11 h 66.46 v 211.53 z m 187.18,0 h -123.96 v -211.53 h 119.24 v 38.68 h -72.61 v 47.14 h 67.59 v 38.68 h -67.59 v 48.35 h 77.33 z m 235.33,0 h -46.93 l -85.25,-132.91 c -4.97,-7.76 -8.46,-13.59 -10.38,-17.52 h -0.54 c 0.74,7.45 1.13,18.83 1.13,34.2 v 116.24 H 5063.2 V 5418.5 h 50.18 l 82,128.78 c 3.74,5.8 7.18,11.54 10.38,17.28 h 0.54 c -0.74,-4.94 -1.13,-14.61 -1.13,-29.06 v -117 h 43.98 v 211.53 z m 208.72,-172.85 h -59.03 v 172.85 h -46.63 v -172.85 h -58.74 v -38.68 h 164.4 z m 225.84,172.85 h -50.77 l -14.46,-47.14 h -73.94 l -14.31,47.14 h -50.47 l 75.21,-211.53 h 55.24 l 73.49,211.53 z m -75.95,-83.71 -22.33,-71.01 c -1.62,-5.34 -2.8,-11.69 -3.49,-19.04 h -1.13 c -0.49,6.19 -1.67,12.34 -3.64,18.43 l -22.57,71.61 h 53.17 z m 241.04,83.71 h -123.08 v -211.53 h 46.63 v 172.85 h 76.44 v 38.68 z m 34.63,-8.16 v -47.14 c 8.37,7.15 17.46,12.49 27.3,16.06 9.79,3.58 19.73,5.39 29.71,5.39 5.86,0 11.02,-0.55 15.4,-1.61 4.37,-1.11 8.02,-2.57 10.92,-4.53 2.95,-1.92 5.17,-4.18 6.59,-6.75 1.43,-2.62 2.17,-5.44 2.17,-8.51 0,-4.13 -1.13,-7.81 -3.44,-11.03 -2.31,-3.28 -5.46,-6.25 -9.49,-9.02 -3.99,-2.77 -8.71,-5.44 -14.22,-7.96 -5.46,-2.57 -11.41,-5.19 -17.76,-7.86 -16.13,-6.85 -28.19,-15.26 -36.16,-25.18 -7.92,-9.97 -11.91,-21.96 -11.91,-36.01 0,-11.03 2.17,-20.5 6.5,-28.41 4.33,-7.91 10.23,-14.45 17.66,-19.54 7.43,-5.14 16.09,-8.86 25.88,-11.28 9.84,-2.42 20.22,-3.63 31.14,-3.63 10.77,0 20.31,0.65 28.63,2.01 8.31,1.31 15.99,3.38 23.02,6.15 v 44.12 c -3.44,-2.47 -7.23,-4.63 -11.31,-6.5 -4.08,-1.92 -8.31,-3.48 -12.65,-4.69 -4.33,-1.26 -8.61,-2.17 -12.89,-2.72 -4.28,-0.61 -8.36,-0.91 -12.2,-0.91 -5.31,0 -10.08,0.5 -14.41,1.56 -4.33,1.01 -8.02,2.47 -10.97,4.33 -3,1.87 -5.31,4.13 -6.94,6.7 -1.62,2.62 -2.46,5.54 -2.46,8.81 0,3.52 0.93,6.7 2.76,9.52 1.82,2.77 4.43,5.44 7.77,7.96 3.4,2.52 7.48,4.94 12.3,7.36 4.82,2.41 10.23,4.88 16.28,7.45 8.31,3.58 15.74,7.31 22.33,11.28 6.59,3.98 12.25,8.51 16.97,13.5 4.67,5.04 8.31,10.78 10.82,17.23 2.51,6.44 3.74,13.9 3.74,22.46 0,11.83 -2.17,21.7 -6.54,29.76 -4.38,8.01 -10.33,14.5 -17.86,19.44 -7.48,4.98 -16.18,8.56 -26.17,10.73 -9.94,2.17 -20.46,3.22 -31.53,3.22 -11.31,0 -22.14,-1.01 -32.37,-2.97 -10.23,-1.96 -19.09,-4.89 -26.61,-8.81 z"
   class="fil8" />
  <path
   id="path142"
   d="m 2232.57,5804.3 h 22.28 c 5.02,0 8.85,0.38 11.49,1.16 3.54,1.04 6.58,2.9 9.09,5.57 2.54,2.66 4.45,5.93 5.78,9.8 1.31,3.86 1.97,8.63 1.97,14.29 0,4.99 -0.62,9.27 -1.86,12.87 -1.51,4.41 -3.66,7.97 -6.46,10.69 -2.11,2.07 -4.97,3.68 -8.56,4.83 -2.69,0.86 -6.28,1.28 -10.78,1.28 h -22.94 v -60.5 z m 12.25,10.22 v 40.05 h 9.08 c 3.39,0 5.84,-0.2 7.35,-0.57 1.98,-0.5 3.62,-1.34 4.91,-2.52 1.31,-1.18 2.37,-3.13 3.18,-5.83 0.83,-2.7 1.24,-6.41 1.24,-11.08 0,-4.68 -0.41,-8.25 -1.24,-10.76 -0.81,-2.51 -1.97,-4.45 -3.45,-5.86 -1.48,-1.39 -3.35,-2.35 -5.63,-2.84 -1.69,-0.38 -5.03,-0.58 -9.98,-0.58 h -5.46 z m 95.28,50.27 v -60.5 h 12.25 v 60.5 z m 98.98,-22.22 v -10.22 h 26.28 v 24.13 c -2.55,2.5 -6.25,4.68 -11.11,6.58 -4.84,1.89 -9.76,2.83 -14.74,2.83 -6.32,0 -11.83,-1.33 -16.53,-3.99 -4.69,-2.66 -8.22,-6.48 -10.59,-11.42 -2.37,-4.94 -3.55,-10.33 -3.55,-16.15 0,-6.31 1.32,-11.91 3.95,-16.83 2.65,-4.9 6.51,-8.68 11.59,-11.3 3.89,-2.02 8.7,-3.02 14.48,-3.02 7.5,0 13.37,1.58 17.6,4.73 4.21,3.17 6.93,7.52 8.14,13.09 l -12.17,2.28 c -0.85,-2.97 -2.45,-5.32 -4.8,-7.06 -2.34,-1.72 -5.26,-2.58 -8.79,-2.58 -5.32,0 -9.56,1.69 -12.7,5.08 -3.14,3.4 -4.72,8.42 -4.72,15.08 0,7.2 1.59,12.59 4.77,16.18 3.2,3.59 7.37,5.39 12.54,5.39 2.55,0 5.11,-0.5 7.67,-1.5 2.57,-1 4.77,-2.23 6.62,-3.66 v -7.68 h -13.94 z m 84.53,22.22 v -60.5 h 11.85 l 24.89,40.54 v -40.54 h 11.32 v 60.5 h -12.24 l -24.52,-39.76 v 39.76 h -11.32 z m 107.53,0 v -60.5 h 12.25 v 60.5 z m 84.44,0 v -50.27 h -17.91 v -10.22 h 47.99 v 10.22 h -17.83 v 50.27 z m 100.83,0 v -25.46 l -22.18,-35.04 h 14.32 l 14.31,23.95 13.93,-23.95 h 14.06 l -22.18,35.12 v 25.38 h -12.25 z m 209.79,-7.34 -7.03,8.94 c -3.43,-1.68 -6.74,-3.99 -9.91,-6.93 -2.44,2.2 -5.04,3.81 -7.79,4.85 -2.75,1.04 -6.01,1.57 -9.81,1.57 -7.52,0 -13.18,-2.13 -16.98,-6.37 -2.94,-3.27 -4.41,-7.04 -4.41,-11.31 0,-3.89 1.16,-7.38 3.48,-10.48 2.31,-3.1 5.78,-5.79 10.38,-8.07 -2.07,-2.45 -3.63,-4.79 -4.67,-7.01 -1.06,-2.23 -1.57,-4.33 -1.57,-6.31 0,-3.66 1.46,-6.77 4.39,-9.32 2.92,-2.55 7.1,-3.83 12.5,-3.83 5.21,0 9.3,1.34 12.24,4 2.94,2.68 4.41,5.93 4.41,9.79 0,2.45 -0.72,4.78 -2.17,6.97 -1.45,2.2 -4.37,4.69 -8.76,7.46 l 8.32,11.2 c 0.98,-1.75 1.83,-4.04 2.55,-6.86 l 10.5,2.35 c -1.04,3.72 -1.96,6.45 -2.73,8.17 -0.76,1.72 -1.59,3.17 -2.48,4.32 1.3,1.21 2.97,2.54 5.02,3.99 2.06,1.45 3.56,2.41 4.52,2.87 z m -31.56,-32.95 3.11,-2.41 c 2.3,-1.79 3.43,-3.56 3.43,-5.32 0,-1.49 -0.55,-2.76 -1.66,-3.8 -1.1,-1.06 -2.59,-1.58 -4.48,-1.58 -1.83,0 -3.27,0.46 -4.31,1.38 -1.03,0.93 -1.55,2 -1.55,3.21 0,1.44 0.87,3.17 2.62,5.21 l 2.83,3.31 z m -4.54,12.62 c -2.65,1.35 -4.63,2.98 -5.96,4.89 -1.31,1.9 -1.97,3.84 -1.97,5.81 0,2.5 0.82,4.56 2.45,6.14 1.62,1.59 3.8,2.38 6.55,2.38 1.8,0 3.55,-0.35 5.21,-1.07 1.67,-0.72 3.49,-1.9 5.46,-3.56 z m 160.99,27.67 v -60.5 h 25.72 c 6.46,0 11.17,0.55 14.09,1.63 2.94,1.08 5.28,3.02 7.04,5.79 1.76,2.79 2.65,5.96 2.65,9.54 0,4.55 -1.32,8.29 -3.98,11.25 -2.66,2.96 -6.63,4.81 -11.93,5.59 2.63,1.54 4.8,3.23 6.51,5.07 1.72,1.85 4.03,5.13 6.93,9.83 l 7.38,11.8 h -14.6 l -8.76,-13.21 c -3.14,-4.69 -5.3,-7.65 -6.46,-8.87 -1.16,-1.21 -2.38,-2.05 -3.67,-2.51 -1.31,-0.45 -3.37,-0.67 -6.19,-0.67 h -2.48 v 25.26 z m 12.25,-34.9 h 9.04 c 5.86,0 9.51,-0.25 10.97,-0.74 1.45,-0.49 2.61,-1.35 3.42,-2.56 0.83,-1.21 1.24,-2.73 1.24,-4.55 0,-2.04 -0.55,-3.67 -1.63,-4.94 -1.09,-1.26 -2.62,-2.04 -4.59,-2.37 -1,-0.14 -3.97,-0.21 -8.91,-0.21 h -9.54 z m 95.71,34.9 v -60.5 h 44.78 v 10.22 h -32.53 v 13.43 h 30.24 v 10.22 h -30.24 v 16.39 h 33.71 v 10.22 h -45.96 z m 100.09,-19.6 11.91,-1.19 c 0.72,3.99 2.15,6.9 4.33,8.77 2.19,1.87 5.13,2.8 8.83,2.8 3.91,0 6.87,-0.83 8.86,-2.49 1.98,-1.66 2.98,-3.6 2.98,-5.83 0,-1.44 -0.43,-2.65 -1.26,-3.66 -0.83,-1 -2.3,-1.87 -4.38,-2.61 -1.42,-0.5 -4.66,-1.38 -9.73,-2.65 -6.52,-1.63 -11.09,-3.63 -13.73,-6.01 -3.7,-3.33 -5.55,-7.41 -5.55,-12.2 0,-3.09 0.87,-5.98 2.61,-8.67 1.74,-2.69 4.25,-4.73 7.54,-6.14 3.28,-1.41 7.22,-2.11 11.87,-2.11 7.56,0 13.26,1.68 17.08,5.04 3.83,3.37 5.83,7.84 6.03,13.46 l -12.25,0.42 c -0.52,-3.13 -1.63,-5.36 -3.33,-6.73 -1.7,-1.37 -4.27,-2.06 -7.67,-2.06 -3.52,0 -6.28,0.74 -8.27,2.2 -1.28,0.94 -1.93,2.2 -1.93,3.78 0,1.44 0.6,2.66 1.81,3.67 1.54,1.31 5.27,2.67 11.19,4.07 5.93,1.39 10.31,2.85 13.14,4.35 2.84,1.51 5.07,3.55 6.67,6.15 1.61,2.61 2.41,5.82 2.41,9.63 0,3.46 -0.96,6.72 -2.89,9.74 -1.93,3.02 -4.65,5.28 -8.17,6.74 -3.52,1.48 -7.91,2.21 -13.17,2.21 -7.64,0 -13.52,-1.76 -17.61,-5.3 -4.1,-3.52 -6.54,-8.66 -7.34,-15.41 z m 106.51,19.6 v -60.5 h 19.59 c 7.42,0 12.25,0.3 14.5,0.91 3.46,0.91 6.37,2.89 8.7,5.93 2.34,3.04 3.51,6.97 3.51,11.79 0,3.72 -0.68,6.83 -2.02,9.36 -1.35,2.54 -3.06,4.52 -5.13,5.97 -2.07,1.44 -4.18,2.4 -6.32,2.86 -2.91,0.57 -7.12,0.87 -12.64,0.87 h -7.94 v 22.81 z m 12.25,-50.27 v 17.24 h 6.66 c 4.8,0 8,-0.32 9.62,-0.96 1.62,-0.63 2.89,-1.62 3.8,-2.98 0.92,-1.35 1.39,-2.92 1.39,-4.72 0,-2.21 -0.65,-4.03 -1.93,-5.46 -1.3,-1.43 -2.92,-2.34 -4.9,-2.7 -1.45,-0.27 -4.37,-0.41 -8.76,-0.41 h -5.87 z m 91.05,50.27 v -60.5 h 44.78 v 10.22 h -32.53 v 13.43 h 30.24 v 10.22 h -30.24 v 16.39 h 33.71 v 10.22 h -45.96 z m 141.99,-22.31 11.83,3.63 c -1.82,6.66 -4.85,11.6 -9.07,14.84 -4.22,3.22 -9.57,4.84 -16.07,4.84 -8.04,0 -14.64,-2.74 -19.83,-8.24 -5.17,-5.49 -7.76,-13 -7.76,-22.53 0,-10.07 2.6,-17.9 7.8,-23.47 5.19,-5.57 12.04,-8.37 20.52,-8.37 7.4,0 13.42,2.2 18.04,6.58 2.76,2.59 4.81,6.31 6.2,11.17 l -12.08,2.87 c -0.72,-3.13 -2.21,-5.6 -4.48,-7.42 -2.28,-1.81 -5.04,-2.72 -8.28,-2.72 -4.5,0 -8.14,1.61 -10.93,4.83 -2.8,3.21 -4.2,8.42 -4.2,15.63 0,7.63 1.38,13.08 4.13,16.32 2.76,3.25 6.33,4.87 10.74,4.87 3.25,0 6.06,-1.03 8.39,-3.1 2.34,-2.07 4.03,-5.31 5.04,-9.74 z m 82.86,22.31 v -50.27 h -17.91 v -10.22 h 47.99 v 10.22 h -17.83 v 50.27 z m 152.16,-19.6 11.91,-1.19 c 0.72,3.99 2.15,6.9 4.34,8.77 2.18,1.87 5.12,2.8 8.83,2.8 3.92,0 6.87,-0.83 8.86,-2.49 1.99,-1.66 2.98,-3.6 2.98,-5.83 0,-1.44 -0.42,-2.65 -1.25,-3.66 -0.83,-1 -2.3,-1.87 -4.38,-2.61 -1.43,-0.5 -4.66,-1.38 -9.73,-2.65 -6.52,-1.63 -11.09,-3.63 -13.73,-6.01 -3.7,-3.33 -5.55,-7.41 -5.55,-12.2 0,-3.09 0.88,-5.98 2.61,-8.67 1.75,-2.69 4.25,-4.73 7.54,-6.14 3.28,-1.41 7.22,-2.11 11.87,-2.11 7.56,0 13.26,1.68 17.08,5.04 3.83,3.37 5.83,7.84 6.03,13.46 l -12.25,0.42 c -0.52,-3.13 -1.63,-5.36 -3.33,-6.73 -1.7,-1.37 -4.27,-2.06 -7.67,-2.06 -3.52,0 -6.28,0.74 -8.27,2.2 -1.28,0.94 -1.93,2.2 -1.93,3.78 0,1.44 0.61,2.66 1.82,3.67 1.53,1.31 5.26,2.67 11.19,4.07 5.93,1.39 10.31,2.85 13.14,4.35 2.85,1.51 5.07,3.55 6.67,6.15 1.61,2.61 2.41,5.82 2.41,9.63 0,3.46 -0.96,6.72 -2.89,9.74 -1.93,3.02 -4.65,5.28 -8.17,6.74 -3.52,1.48 -7.91,2.21 -13.17,2.21 -7.65,0 -13.52,-1.76 -17.61,-5.3 -4.1,-3.52 -6.54,-8.66 -7.34,-15.41 z m 106.51,19.6 v -60.5 h 44.78 v 10.22 h -32.53 v 13.43 h 30.24 v 10.22 h -30.24 v 16.39 h 33.71 v 10.22 h -45.96 z m 103.3,0 v -60.5 h 25.72 c 6.46,0 11.17,0.55 14.1,1.63 2.94,1.08 5.28,3.02 7.04,5.79 1.76,2.79 2.65,5.96 2.65,9.54 0,4.55 -1.32,8.29 -3.99,11.25 -2.66,2.96 -6.63,4.81 -11.93,5.59 2.63,1.54 4.8,3.23 6.51,5.07 1.72,1.85 4.03,5.13 6.93,9.83 l 7.38,11.8 h -14.6 l -8.76,-13.21 c -3.14,-4.69 -5.3,-7.65 -6.46,-8.87 -1.15,-1.21 -2.38,-2.05 -3.67,-2.51 -1.31,-0.45 -3.37,-0.67 -6.18,-0.67 h -2.48 v 25.26 h -12.25 z m 12.25,-34.9 h 9.04 c 5.86,0 9.51,-0.25 10.97,-0.74 1.45,-0.49 2.61,-1.35 3.43,-2.56 0.83,-1.21 1.24,-2.73 1.24,-4.55 0,-2.04 -0.55,-3.67 -1.63,-4.94 -1.09,-1.26 -2.62,-2.04 -4.59,-2.37 -1,-0.14 -3.97,-0.21 -8.91,-0.21 h -9.54 v 15.37 z m 95.29,34.9 v -60.5 h 12.25 v 60.5 z m 84.44,0 v -50.27 h -17.91 v -10.22 h 47.99 v 10.22 H 4360 v 50.27 z m 84.53,0 v -60.5 h 12.25 v 60.5 z m 141.59,0 v -59.99 h 12.25 v 49.76 h 30.33 v 10.22 h -42.59 z m 98.22,0 v -60.5 h 44.78 v 10.22 h -32.53 v 13.43 h 30.24 v 10.22 h -30.24 v 16.39 h 33.71 v 10.22 h -45.96 z m 173.72,0 v -60.5 h 12.25 v 23.83 h 23.82 v -23.83 h 12.25 v 60.5 h -12.25 v -26.45 h -23.82 v 26.45 z m 108.3,0 v -59.99 h 12.25 v 49.76 h 30.33 v 10.22 h -42.58 z m 95.68,-29.88 c 0,-6.17 0.93,-11.35 2.77,-15.54 1.37,-3.09 3.25,-5.86 5.63,-8.31 2.38,-2.45 4.98,-4.26 7.81,-5.46 3.78,-1.59 8.12,-2.39 13.06,-2.39 8.93,0 16.05,2.78 21.41,8.31 5.35,5.55 8.03,13.25 8.03,23.12 0,9.79 -2.66,17.45 -7.97,22.97 -5.31,5.54 -12.42,8.3 -21.3,8.3 -9,0 -16.17,-2.75 -21.48,-8.25 -5.31,-5.49 -7.97,-13.07 -7.97,-22.73 z m 12.59,-0.41 c 0,6.86 1.59,12.06 4.76,15.61 3.17,3.53 7.2,5.3 12.07,5.3 4.89,0 8.89,-1.76 12.03,-5.26 3.13,-3.52 4.69,-8.79 4.69,-15.81 0,-6.94 -1.52,-12.13 -4.57,-15.54 -3.04,-3.42 -7.08,-5.13 -12.14,-5.13 -5.04,0 -9.11,1.74 -12.19,5.19 -3.09,3.46 -4.63,8.67 -4.63,15.64 z m 102.44,30.29 v -60.5 h 18.35 l 10.84,41.26 10.72,-41.26 h 18.39 v 60.5 h -11.32 l -0.04,-47.62 -11.93,47.62 h -11.77 l -11.87,-47.62 -0.04,47.62 h -11.32 z m 117.49,0 v -60.5 h 19.59 c 7.42,0 12.25,0.3 14.5,0.91 3.46,0.91 6.37,2.89 8.7,5.93 2.33,3.04 3.5,6.97 3.5,11.79 0,3.72 -0.68,6.83 -2.02,9.36 -1.35,2.54 -3.06,4.52 -5.12,5.97 -2.07,1.44 -4.18,2.4 -6.32,2.86 -2.92,0.57 -7.13,0.87 -12.65,0.87 h -7.94 v 22.81 h -12.25 z m 12.25,-50.27 v 17.24 h 6.66 c 4.8,0 8,-0.32 9.62,-0.96 1.62,-0.63 2.89,-1.62 3.8,-2.98 0.92,-1.35 1.38,-2.92 1.38,-4.72 0,-2.21 -0.65,-4.03 -1.93,-5.46 -1.3,-1.43 -2.91,-2.34 -4.9,-2.7 -1.45,-0.27 -4.37,-0.41 -8.76,-0.41 h -5.87 z m 91.05,50.27 v -60.5 h 12.25 v 23.83 h 23.83 v -23.83 h 12.25 v 60.5 h -12.25 v -26.45 h -23.83 v 26.45 z m 105.43,-29.88 c 0,-6.17 0.93,-11.35 2.77,-15.54 1.37,-3.09 3.25,-5.86 5.63,-8.31 2.39,-2.45 4.99,-4.26 7.82,-5.46 3.78,-1.59 8.12,-2.39 13.06,-2.39 8.93,0 16.05,2.78 21.41,8.31 5.35,5.55 8.03,13.25 8.03,23.12 0,9.79 -2.66,17.45 -7.97,22.97 -5.31,5.54 -12.42,8.3 -21.3,8.3 -9,0 -16.17,-2.75 -21.48,-8.25 -5.31,-5.49 -7.97,-13.07 -7.97,-22.73 z m 12.59,-0.41 c 0,6.86 1.59,12.06 4.76,15.61 3.17,3.53 7.2,5.3 12.07,5.3 4.89,0 8.89,-1.76 12.03,-5.26 3.13,-3.52 4.69,-8.79 4.69,-15.81 0,-6.94 -1.52,-12.13 -4.57,-15.54 -3.04,-3.42 -7.08,-5.13 -12.14,-5.13 -5.04,0 -9.11,1.74 -12.19,5.19 -3.09,3.46 -4.63,8.67 -4.63,15.64 z"
   class="fil9" />
  <line
   id="line144"
   y2="5902.2598"
   x2="3891.1599"
   y1="5764.27"
   x1="3891.1599"
   class="fil10 str1" />
  <use
   id="use146"
   xlink:href="#YES"
   height="4786"
   width="4785.9902"
   y="-317341.09"
   x="239726.16"
   transform="scale(0.011389,-0.011389)" />
  <use
   id="use148"
   xlink:href="#YES"
   height="4786"
   width="4785.9902"
   y="-288596.72"
   x="389196.78"
   transform="scale(0.011389,-0.011389)" />
  <use
   id="use150"
   xlink:href="#YES"
   height="4786"
   width="4785.9902"
   y="-317783.34"
   x="390523.53"
   transform="scale(0.011389,-0.011389)" />
  <use
   id="use152"
   xlink:href="#YES"
   height="4786"
   width="4785.9902"
   y="-608065.06"
   x="454797.41"
   transform="scale(0.00605065,-0.00578815)" />
  <use
   id="use154"
   xlink:href="#YES"
   height="4786"
   width="4785.9902"
   y="-627288.5"
   x="479882.19"
   transform="scale(0.00605065,-0.00578815)" />
  <use
   id="use156"
   xlink:href="#YES"
   height="4786"
   width="4785.9902"
   y="-604259.25"
   x="477376.38"
   transform="scale(0.00605065,-0.00578815)" />
  <use
   id="use158"
   xlink:href="#YES"
   height="4786"
   width="4785.9902"
   y="-654697.81"
   x="446153.62"
   transform="scale(0.00605065,-0.00578815)" />
  <use
   id="use160"
   xlink:href="#YES"
   height="4786"
   width="4785.9902"
   y="-616846.81"
   x="411193.38"
   transform="scale(0.00605065,-0.00578815)" />
  <use
   id="use162"
   xlink:href="#YES"
   height="4786"
   width="4785.9902"
   y="-659077.81"
   x="401629.88"
   transform="scale(0.00605065,-0.00578815)" />
  <use
   id="use164"
   xlink:href="#YES"
   height="4786"
   width="4785.9902"
   y="-642762.88"
   x="423271.66"
   transform="scale(0.00605065,-0.00578815)" />
  <use
   id="use166"
   xlink:href="#YES"
   height="4786"
   width="4785.9902"
   y="-575950.62"
   x="472790"
   transform="scale(0.00605065,-0.00578815)" />
  <use
   id="use168"
   xlink:href="#YES"
   height="4786"
   width="4785.9902"
   y="-600779"
   x="511816.12"
   transform="scale(0.00605065,-0.00578815)" />
  <use
   id="use170"
   xlink:href="#YES"
   height="4786"
   width="4785.9902"
   y="-617201.5"
   x="475606.78"
   transform="scale(0.00605065,-0.00578815)" />
  <use
   id="use172"
   xlink:href="#YES"
   height="4786"
   width="4785.9902"
   y="-636424.94"
   x="500691.56"
   transform="scale(0.00605065,-0.00578815)" />
  <use
   id="use174"
   xlink:href="#YES"
   height="4786"
   width="4785.9902"
   y="-613395.69"
   x="498185.75"
   transform="scale(0.00605065,-0.00578815)" />
  <use
   id="use176"
   xlink:href="#YES"
   height="4786"
   width="4785.9902"
   y="-663834.25"
   x="466962.97"
   transform="scale(0.00605065,-0.00578815)" />
  <use
   id="use178"
   xlink:href="#YES"
   height="4786"
   width="4785.9902"
   y="-625983.25"
   x="432002.75"
   transform="scale(0.00605065,-0.00578815)" />
  <use
   id="use180"
   xlink:href="#YES"
   height="4786"
   width="4785.9902"
   y="-668214.25"
   x="422439.22"
   transform="scale(0.00605065,-0.00578815)" />
  <use
   id="use182"
   xlink:href="#YES"
   height="4786"
   width="4785.9902"
   y="-651899.31"
   x="444081.03"
   transform="scale(0.00605065,-0.00578815)" />
  <use
   id="use184"
   xlink:href="#YES"
   height="4786"
   width="4785.9902"
   y="-585087.06"
   x="493599.38"
   transform="scale(0.00605065,-0.00578815)" />
  <use
   id="use186"
   xlink:href="#YES"
   height="4786"
   width="4785.9902"
   y="-609915.44"
   x="532625.5"
   transform="scale(0.00605065,-0.00578815)" />
  <use
   id="use188"
   xlink:href="#YES"
   height="4786"
   width="4785.9902"
   y="-617201.5"
   x="475606.78"
   transform="scale(0.00605065,-0.00578815)" />
  <use
   id="use190"
   xlink:href="#YES"
   height="4786"
   width="4785.9902"
   y="-636424.94"
   x="500691.56"
   transform="scale(0.00605065,-0.00578815)" />
  <use
   id="use192"
   xlink:href="#YES"
   height="4786"
   width="4785.9902"
   y="-613395.69"
   x="498185.75"
   transform="scale(0.00605065,-0.00578815)" />
  <use
   id="use194"
   xlink:href="#YES"
   height="4786"
   width="4785.9902"
   y="-663834.25"
   x="466962.97"
   transform="scale(0.00605065,-0.00578815)" />
  <use
   id="use196"
   xlink:href="#YES"
   height="4786"
   width="4785.9902"
   y="-625983.25"
   x="432002.75"
   transform="scale(0.00605065,-0.00578815)" />
  <use
   id="use198"
   xlink:href="#YES"
   height="4786"
   width="4785.9902"
   y="-668214.25"
   x="422439.22"
   transform="scale(0.00605065,-0.00578815)" />
  <use
   id="use200"
   xlink:href="#YES"
   height="4786"
   width="4785.9902"
   y="-651899.31"
   x="444081.03"
   transform="scale(0.00605065,-0.00578815)" />
  <use
   id="use202"
   xlink:href="#YES"
   height="4786"
   width="4785.9902"
   y="-585087.06"
   x="493599.38"
   transform="scale(0.00605065,-0.00578815)" />
  <use
   id="use204"
   xlink:href="#YES"
   height="4786"
   width="4785.9902"
   y="-609915.44"
   x="532625.5"
   transform="scale(0.00605065,-0.00578815)" />
  <use
   id="use206"
   xlink:href="#YES"
   height="4786"
   width="4785.9902"
   y="-615373.81"
   x="-851823.31"
   transform="scale(-0.00605065,-0.00578815)" />
  <use
   id="use208"
   xlink:href="#YES"
   height="4786"
   width="4785.9902"
   y="-634597.25"
   x="-826738.56"
   transform="scale(-0.00605065,-0.00578815)" />
  <use
   id="use210"
   xlink:href="#YES"
   height="4786"
   width="4785.9902"
   y="-611568"
   x="-829244.31"
   transform="scale(-0.00605065,-0.00578815)" />
  <use
   id="use212"
   xlink:href="#YES"
   height="4786"
   width="4785.9902"
   y="-662006.56"
   x="-860467.12"
   transform="scale(-0.00605065,-0.00578815)" />
  <use
   id="use214"
   xlink:href="#YES"
   height="4786"
   width="4785.9902"
   y="-624155.56"
   x="-895427.31"
   transform="scale(-0.00605065,-0.00578815)" />
  <use
   id="use216"
   xlink:href="#YES"
   height="4786"
   width="4785.9902"
   y="-666386.56"
   x="-904990.88"
   transform="scale(-0.00605065,-0.00578815)" />
  <use
   id="use218"
   xlink:href="#YES"
   height="4786"
   width="4785.9902"
   y="-650071.62"
   x="-883349.06"
   transform="scale(-0.00605065,-0.00578815)" />
  <use
   id="use220"
   xlink:href="#YES"
   height="4786"
   width="4785.9902"
   y="-583259.38"
   x="-833830.75"
   transform="scale(-0.00605065,-0.00578815)" />
  <use
   id="use222"
   xlink:href="#YES"
   height="4786"
   width="4785.9902"
   y="-608087.75"
   x="-794804.62"
   transform="scale(-0.00605065,-0.00578815)" />
  <use
   id="use224"
   xlink:href="#YES"
   height="4786"
   width="4785.9902"
   y="-624510.25"
   x="-831013.94"
   transform="scale(-0.00605065,-0.00578815)" />
  <use
   id="use226"
   xlink:href="#YES"
   height="4786"
   width="4785.9902"
   y="-643733.69"
   x="-805929.19"
   transform="scale(-0.00605065,-0.00578815)" />
  <use
   id="use228"
   xlink:href="#YES"
   height="4786"
   width="4785.9902"
   y="-620704.44"
   x="-808434.94"
   transform="scale(-0.00605065,-0.00578815)" />
  <use
   id="use230"
   xlink:href="#YES"
   height="4786"
   width="4785.9902"
   y="-671143"
   x="-839657.75"
   transform="scale(-0.00605065,-0.00578815)" />
  <use
   id="use232"
   xlink:href="#YES"
   height="4786"
   width="4785.9902"
   y="-633292"
   x="-874618"
   transform="scale(-0.00605065,-0.00578815)" />
  <use
   id="use234"
   xlink:href="#YES"
   height="4786"
   width="4785.9902"
   y="-675523"
   x="-884181.5"
   transform="scale(-0.00605065,-0.00578815)" />
  <use
   id="use236"
   xlink:href="#YES"
   height="4786"
   width="4785.9902"
   y="-659208.06"
   x="-862539.69"
   transform="scale(-0.00605065,-0.00578815)" />
  <use
   id="use238"
   xlink:href="#YES"
   height="4786"
   width="4785.9902"
   y="-617224.19"
   x="-773995.25"
   transform="scale(-0.00605065,-0.00578815)" />
  <use
   id="use240"
   xlink:href="#YES"
   height="4786"
   width="4785.9902"
   y="716.14001"
   x="-535.98999"
   transform="matrix(-0.00460934,0.00363223,-0.00347465,-0.00440938,3824.17,3149.25)" />
  <use
   id="use242"
   xlink:href="#YES"
   height="4786"
   width="4785.9902"
   y="716.14001"
   x="-535.98999"
   transform="matrix(-0.00460934,0.00363223,-0.00347465,-0.00440938,3706.87,3214.48)" />
  <use
   id="use244"
   xlink:href="#YES"
   height="4786"
   width="4785.9902"
   y="716.14001"
   x="-535.98999"
   transform="matrix(-0.00460934,0.00363223,-0.00347465,-0.00440938,4055.67,3029.6)" />
  <use
   id="use246"
   xlink:href="#YES"
   height="4786"
   width="4785.9902"
   y="716.14001"
   x="-535.98999"
   transform="matrix(-0.00460934,0.00363223,-0.00347465,-0.00440938,4246.49,3181.07)" />
  <use
   id="use248"
   xlink:href="#YES"
   height="4786"
   width="4785.9902"
   y="716.14001"
   x="-535.98999"
   transform="matrix(-0.00460934,0.00363223,-0.00347465,-0.00440938,4090.05,3187.74)" />
  <use
   id="use250"
   xlink:href="#YES"
   height="4786"
   width="4785.9902"
   y="716.14001"
   x="-535.98999"
   transform="matrix(-0.00460934,0.00363223,-0.00347465,-0.00440938,3629.65,3073)" />
  <use
   id="use252"
   xlink:href="#YES"
   height="4786"
   width="4785.9902"
   y="716.14001"
   x="-535.98999"
   transform="matrix(-0.00460934,0.00363223,-0.00347465,-0.00440938,3536.03,3324.23)" />
  <use
   id="use254"
   xlink:href="#YES"
   height="4786"
   width="4785.9902"
   y="716.14001"
   x="-535.98999"
   transform="matrix(-0.00460934,0.00363223,-0.00347465,-0.00440938,3760,3265.12)" />
  <use
   id="use256"
   xlink:href="#YES"
   height="4786"
   width="4785.9902"
   y="716.14001"
   x="-535.98999"
   transform="matrix(-0.00460934,0.00363223,-0.00347465,-0.00440938,3991.5,3145.47)" />
  <use
   id="use258"
   xlink:href="#YES"
   height="4786"
   width="4785.9902"
   y="716.14001"
   x="-535.98999"
   transform="matrix(-0.00460934,0.00363223,-0.00347465,-0.00440938,4182.32,3296.94)" />
 </g>
</svg>
